<?xml version="1.0" encoding="UTF-8" standalone="no"?>
<!DOCTYPE svg PUBLIC "-//W3C//DTD SVG 1.1//EN" "http://www.w3.org/Graphics/SVG/1.1/DTD/svg11.dtd">
<svg width="100%" height="100%" viewBox="0 0 585 687" version="1.1" xmlns="http://www.w3.org/2000/svg" xmlns:xlink="http://www.w3.org/1999/xlink" xml:space="preserve" xmlns:serif="http://www.serif.com/" style="fill-rule:evenodd;clip-rule:evenodd;stroke-linejoin:round;stroke-miterlimit:2;">
    <g transform="matrix(0.962131,0,0,0.954785,-416.709,-759.569)">
        <rect id="Artboard1" x="433.111" y="795.54" width="607.085" height="718.654" style="fill:none;"/>
        <g id="Artboard11" serif:id="Artboard1">
            <g transform="matrix(4.33066,0,0,4.36398,273.957,-1426.05)">
                <rect x="72.687" y="614.011" width="4.423" height="25.087" style="fill:rgb(6,93,219);"/>
            </g>
            <g transform="matrix(4.33066,0,0,4.36398,273.957,-1641.37)">
                <rect x="80.901" y="614.011" width="4.423" height="74.427" style="fill:rgb(146,212,238);"/>
            </g>
            <g transform="matrix(4.33066,0,0,4.36398,273.957,-1646.47)">
                <rect x="87.219" y="614.011" width="4.422" height="75.595" style="fill:rgb(146,212,238);"/>
            </g>
            <g transform="matrix(4.33066,0,0,4.36398,273.957,-1650.69)">
                <rect x="93.537" y="614.011" width="4.423" height="76.564" style="fill:rgb(146,212,238);"/>
            </g>
            <g transform="matrix(4.33066,0,0,4.36398,273.957,-1656.44)">
                <rect x="99.856" y="614.011" width="4.423" height="77.881" style="fill:rgb(146,212,238);"/>
            </g>
            <g transform="matrix(4.33066,0,0,4.36398,273.957,-1670.63)">
                <rect x="106.174" y="614.011" width="4.422" height="81.132" style="fill:rgb(146,212,238);"/>
            </g>
            <g transform="matrix(4.33066,0,0,4.36398,273.957,-1671.54)">
                <rect x="112.492" y="614.011" width="4.423" height="81.34" style="fill:rgb(146,212,238);"/>
            </g>
            <g transform="matrix(4.33066,0,0,4.36398,273.957,-1673.16)">
                <rect x="118.81" y="614.011" width="4.423" height="81.713" style="fill:rgb(146,212,238);"/>
            </g>
            <g transform="matrix(4.33066,0,0,4.36398,273.957,-1674.61)">
                <rect x="125.129" y="614.011" width="4.422" height="82.045" style="fill:rgb(146,212,238);"/>
            </g>
            <g transform="matrix(4.33066,0,0,4.36398,273.957,-1675.1)">
                <rect x="131.447" y="614.011" width="4.423" height="82.156" style="fill:rgb(146,212,238);"/>
            </g>
            <g transform="matrix(4.33066,0,0,4.36398,273.957,-1676.22)">
                <rect x="137.765" y="614.011" width="4.422" height="82.414" style="fill:rgb(146,212,238);"/>
            </g>
            <g transform="matrix(4.33066,0,0,4.36398,273.957,-1681.42)">
                <rect x="144.083" y="614.011" width="4.422" height="83.604" style="fill:rgb(146,212,238);"/>
            </g>
            <g transform="matrix(4.33066,0,0,4.36398,273.957,-1681.46)">
                <rect x="150.401" y="614.011" width="4.423" height="83.615" style="fill:rgb(146,212,238);"/>
            </g>
            <g transform="matrix(4.33066,0,0,4.36398,273.957,-1685.71)">
                <rect x="156.719" y="614.011" width="4.423" height="84.588" style="fill:rgb(146,212,238);"/>
            </g>
            <g transform="matrix(4.33066,0,0,4.36398,273.957,-1689.25)">
                <rect x="163.037" y="614.011" width="4.423" height="85.399" style="fill:rgb(146,212,238);"/>
            </g>
            <g transform="matrix(4.33066,0,0,4.36398,539.383,1362.97)">
                <path d="M0,0L3.5,0L0,0Z" style="fill-rule:nonzero;"/>
            </g>
            <g transform="matrix(4.33066,0,0,4.36398,273.957,-1316.57)">
                <rect x="61.29" y="613.761" width="3.5" height="0.5"/>
            </g>
            <g transform="matrix(4.33066,0,0,4.36398,539.383,1248.43)">
                <path d="M0,0L3.5,0L0,0Z" style="fill-rule:nonzero;"/>
            </g>
            <g transform="matrix(4.33066,0,0,4.36398,273.957,-1545.64)">
                <rect x="61.29" y="640.007" width="3.5" height="0.5"/>
            </g>
            <g transform="matrix(4.33066,0,0,4.36398,539.383,1133.89)">
                <path d="M0,0L3.5,0L0,0Z" style="fill-rule:nonzero;"/>
            </g>
            <g transform="matrix(4.33066,0,0,4.36398,273.957,-1774.72)">
                <rect x="61.29" y="666.253" width="3.5" height="0.5"/>
            </g>
            <g transform="matrix(4.33066,0,0,4.36398,539.383,1019.35)">
                <path d="M0,0L3.5,0L0,0Z" style="fill-rule:nonzero;"/>
            </g>
            <g transform="matrix(4.33066,0,0,4.36398,273.957,-2003.79)">
                <rect x="61.29" y="692.499" width="3.5" height="0.5"/>
            </g>
            <g transform="matrix(4.33066,0,0,4.36398,539.383,904.817)">
                <path d="M0,0L3.5,0L0,0Z" style="fill-rule:nonzero;"/>
            </g>
            <g transform="matrix(4.33066,0,0,4.36398,273.957,-2232.86)">
                <rect x="61.29" y="718.745" width="3.5" height="0.499"/>
            </g>
            <g transform="matrix(4.33066,0,0,4.36398,273.957,-1546.65)">
                <rect x="74.649" y="636.208" width="0.5" height="8.329"/>
            </g>
            <g transform="matrix(4.33066,0,0,4.36398,273.957,-2080.82)">
                <rect x="82.862" y="683.716" width="0.5" height="35.716"/>
            </g>
            <g transform="matrix(4.33066,0,0,4.36398,273.957,-2015.44)">
                <rect x="89.181" y="680.782" width="0.499" height="26.602"/>
            </g>
            <g transform="matrix(4.33066,0,0,4.36398,273.957,-2036.63)">
                <rect x="95.499" y="682.694" width="0.499" height="27.635"/>
            </g>
            <g transform="matrix(4.33066,0,0,4.36398,273.957,-2015.5)">
                <rect x="101.817" y="685.427" width="0.5" height="17.326"/>
            </g>
            <g transform="matrix(4.33066,0,0,4.36398,273.957,-2095.42)">
                <rect x="108.135" y="685.989" width="0.5" height="34.516"/>
            </g>
            <g transform="matrix(4.33066,0,0,4.36398,273.957,-2107.94)">
                <rect x="114.453" y="684.951" width="0.5" height="39.462"/>
            </g>
            <g transform="matrix(4.33066,0,0,4.36398,273.957,-2030.17)">
                <rect x="120.772" y="680.438" width="0.5" height="30.667"/>
            </g>
            <g transform="matrix(4.33066,0,0,4.36398,273.957,-2071.57)">
                <rect x="127.09" y="681.841" width="0.5" height="37.346"/>
            </g>
            <g transform="matrix(4.33066,0,0,4.36398,273.957,-2060.36)">
                <rect x="133.408" y="680.913" width="0.5" height="36.634"/>
            </g>
            <g transform="matrix(4.33066,0,0,4.36398,273.957,-2080.86)">
                <rect x="139.726" y="682.992" width="0.5" height="37.174"/>
            </g>
            <g transform="matrix(4.33066,0,0,4.36398,273.957,-2067.69)">
                <rect x="146.044" y="681.449" width="0.5" height="37.241"/>
            </g>
            <g transform="matrix(4.33066,0,0,4.36398,273.957,-2115.53)">
                <rect x="152.362" y="686.488" width="0.5" height="38.127"/>
            </g>
            <g transform="matrix(4.33066,0,0,4.36398,273.957,-2139.59)">
                <rect x="158.681" y="686.519" width="0.5" height="43.577"/>
            </g>
            <g transform="matrix(4.33066,0,0,4.36398,273.957,-2109.89)">
                <rect x="164.999" y="685.518" width="0.5" height="38.773"/>
            </g>
            <g transform="matrix(4.33066,0,0,4.36398,273.957,-1848.49)">
                <rect x="64.54" y="613.761" width="0.5" height="122.389"/>
            </g>
            <g transform="matrix(4.33066,0,0,4.36398,273.957,-1316.57)">
                <rect x="64.54" y="613.761" width="105.381" height="0.5"/>
            </g>
            <g transform="matrix(0,-4.36398,4.33066,0,273.957,591.172)">
                <text x="-194.207px" y="70.451px" style="font-family:'Helvetica';font-size:6px;">G42<tspan x="-182.981px " y="70.451px ">7</tspan></text>
                <text x="-206.759px" y="76.283px" style="font-family:'Helvetica';font-size:6px;">AlphaFo<tspan x="-184.52px " y="76.283px ">l</tspan>d</text>
                <text x="-194.207px" y="84.623px" style="font-family:'Helvetica';font-size:6px;">G00<tspan x="-182.981px " y="84.623px ">9</tspan></text>
                <text x="-194.207px" y="90.943px" style="font-family:'Helvetica';font-size:6px;">G47<tspan x="-182.981px " y="90.943px ">3</tspan></text>
                <text x="-194.207px" y="97.263px" style="font-family:'Helvetica';font-size:6px;">G12<tspan x="-182.981px " y="97.263px ">9</tspan></text>
                <text x="-194.207px" y="103.583px" style="font-family:'Helvetica';font-size:6px;">G40<tspan x="-182.981px " y="103.583px ">3</tspan></text>
                <text x="-194.207px" y="109.903px" style="font-family:'Helvetica';font-size:6px;">G03<tspan x="-182.981px " y="109.903px ">2</tspan></text>
                <text x="-194.207px" y="116.223px" style="font-family:'Helvetica';font-size:6px;">G42<tspan x="-182.981px " y="116.223px ">0</tspan></text>
                <text x="-194.207px" y="122.543px" style="font-family:'Helvetica';font-size:6px;">G48<tspan x="-182.981px " y="122.543px ">0</tspan></text>
                <text x="-194.207px" y="128.863px" style="font-family:'Helvetica';font-size:6px;">G49<tspan x="-182.981px " y="128.863px ">8</tspan></text>
                <text x="-194.207px" y="135.183px" style="font-family:'Helvetica';font-size:6px;">G48<tspan x="-182.981px " y="135.183px ">8</tspan></text>
                <text x="-194.207px" y="141.503px" style="font-family:'Helvetica';font-size:6px;">G36<tspan x="-182.981px " y="141.503px ">8</tspan></text>
                <text x="-194.207px" y="147.823px" style="font-family:'Helvetica';font-size:6px;">G32<tspan x="-182.981px " y="147.823px ">4</tspan></text>
                <text x="-194.207px" y="154.143px" style="font-family:'Helvetica';font-size:6px;">G36<tspan x="-182.981px " y="154.143px ">2</tspan></text>
                <text x="-194.207px" y="160.463px" style="font-family:'Helvetica';font-size:6px;">G25<tspan x="-182.981px " y="160.463px ">3</tspan></text>
                <text x="-194.207px" y="166.783px" style="font-family:'Helvetica';font-size:6px;">G21<tspan x="-182.981px " y="166.783px ">6</tspan></text>
            </g>
            <g transform="matrix(4.33066,0,0,4.36398,273.957,591.172)">
                <text x="56.477px" y="178.83px" style="font-family:'Helvetica';font-size:6px;">0</text>
            </g>
            <g transform="matrix(4.33066,0,0,4.36398,273.957,591.172)">
                <text x="56.477px" y="152.584px" style="font-family:'Helvetica';font-size:6px;">1</text>
            </g>
            <g transform="matrix(4.33066,0,0,4.36398,273.957,591.172)">
                <text x="56.477px" y="126.338px" style="font-family:'Helvetica';font-size:6px;">2</text>
            </g>
            <g transform="matrix(4.33066,0,0,4.36398,273.957,591.172)">
                <text x="56.477px" y="100.092px" style="font-family:'Helvetica';font-size:6px;">3</text>
            </g>
            <g transform="matrix(4.33066,0,0,4.36398,273.957,591.172)">
                <text x="56.477px" y="73.847px" style="font-family:'Helvetica';font-size:6px;">4</text>
            </g>
            <g transform="matrix(0,-4.36398,4.33066,0,273.957,591.172)">
                <text x="-148.91px" y="47.149px" style="font-family:'Helvetica';font-size:6px;">Median <tspan x="-127.403px " y="47.149px ">C</tspan>α <tspan x="-117.603px " y="47.149px ">r</tspan>.m.s.d.</text>
                <text x="-97.552px" y="49.147px" style="font-family:'Helvetica';font-size:4.286px;">95</text>
                <text x="-90.986px" y="47.149px" style="font-family:'Helvetica';font-size:6px;"><tspan x="-90.986px " y="47.149px ">(</tspan>Å)</text>
            </g>
        </g>
    </g>
</svg>
