<?xml version="1.0" encoding="utf-8"?>
<!-- Generator: Adobe Illustrator 16.0.0, SVG Export Plug-In . SVG Version: 6.00 Build 0)  -->
<!DOCTYPE svg PUBLIC "-//W3C//DTD SVG 1.1//EN" "http://www.w3.org/Graphics/SVG/1.1/DTD/svg11.dtd">
<svg version="1.1" xmlns="http://www.w3.org/2000/svg" xmlns:xlink="http://www.w3.org/1999/xlink" x="0px" y="0px" width="392px"
	 height="233px" viewBox="0 0 392 233" enable-background="new 0 0 392 233" xml:space="preserve">
<g id="Layer_3">
	<line fill="none" stroke="#000000" stroke-miterlimit="10" x1="41.98" y1="66.102" x2="85.591" y2="153.848"/>
	<line fill="none" stroke="#000000" stroke-miterlimit="10" x1="42.835" y1="105.602" x2="83.769" y2="155.299"/>
	<line fill="none" stroke="#000000" stroke-miterlimit="10" x1="41.98" y1="106.102" x2="85.591" y2="193.848"/>
	<line fill="none" stroke="#000000" stroke-miterlimit="10" x1="45.323" y1="142.48" x2="82.489" y2="157.346"/>
	<line fill="none" stroke="#000000" stroke-miterlimit="10" x1="42.835" y1="145.602" x2="83.769" y2="195.299"/>
	<line fill="none" stroke="#000000" stroke-miterlimit="10" x1="45.323" y1="177.348" x2="82.489" y2="162.48"/>
	<line fill="none" stroke="#000000" stroke-miterlimit="10" x1="45.323" y1="182.48" x2="82.489" y2="197.346"/>
	<line fill="none" stroke="#000000" stroke-miterlimit="10" x1="40.856" y1="66.023" x2="86.575" y2="193.412"/>
	<line fill="none" stroke="#000000" stroke-miterlimit="10" x1="95.323" y1="117.348" x2="132.489" y2="102.481"/>
	<line fill="none" stroke="#000000" stroke-miterlimit="10" x1="95.323" y1="122.481" x2="132.489" y2="137.347"/>
	<line fill="none" stroke="#000000" stroke-miterlimit="10" x1="92.835" y1="125.602" x2="133.769" y2="175.299"/>
	<line fill="none" stroke="#000000" stroke-miterlimit="10" x1="91.98" y1="126.102" x2="135.591" y2="213.848"/>
	<line fill="none" stroke="#000000" stroke-miterlimit="10" x1="93.415" y1="154.68" x2="134.291" y2="105.053"/>
	<line fill="none" stroke="#000000" stroke-miterlimit="10" x1="95.323" y1="157.348" x2="132.489" y2="142.481"/>
	<line fill="none" stroke="#000000" stroke-miterlimit="10" x1="95.323" y1="162.481" x2="132.489" y2="177.346"/>
	<line fill="none" stroke="#000000" stroke-miterlimit="10" x1="92.835" y1="165.602" x2="133.769" y2="215.299"/>
	<line fill="none" stroke="#000000" stroke-miterlimit="10" x1="91.864" y1="193.672" x2="135.808" y2="106.09"/>
	<line fill="none" stroke="#000000" stroke-miterlimit="10" x1="93.415" y1="194.68" x2="134.291" y2="145.053"/>
	<line fill="none" stroke="#000000" stroke-miterlimit="10" x1="95.323" y1="197.348" x2="132.489" y2="182.48"/>
	<line fill="none" stroke="#000000" stroke-miterlimit="10" x1="95.323" y1="202.48" x2="132.489" y2="217.346"/>
	<line fill="none" stroke="#000000" stroke-miterlimit="10" x1="141.864" y1="213.672" x2="185.808" y2="126.09"/>
	<line fill="none" stroke="#000000" stroke-miterlimit="10" x1="143.415" y1="214.68" x2="184.291" y2="165.053"/>
	<line fill="none" stroke="#000000" stroke-miterlimit="10" x1="145.323" y1="217.348" x2="182.489" y2="202.48"/>
	<line fill="none" stroke="#000000" stroke-miterlimit="10" x1="143.415" y1="174.68" x2="184.291" y2="125.053"/>
	<line fill="none" stroke="#000000" stroke-miterlimit="10" x1="145.323" y1="177.348" x2="182.489" y2="162.48"/>
	<line fill="none" stroke="#000000" stroke-miterlimit="10" x1="145.323" y1="182.48" x2="182.489" y2="197.346"/>
	<line fill="none" stroke="#000000" stroke-miterlimit="10" x1="145.323" y1="137.348" x2="182.489" y2="122.48"/>
	<line fill="none" stroke="#000000" stroke-miterlimit="10" x1="145.323" y1="142.48" x2="182.489" y2="157.346"/>
	<line fill="none" stroke="#000000" stroke-miterlimit="10" x1="142.835" y1="145.602" x2="183.769" y2="195.299"/>
	<line fill="none" stroke="#000000" stroke-miterlimit="10" x1="145.323" y1="102.48" x2="182.489" y2="117.346"/>
	<line fill="none" stroke="#000000" stroke-miterlimit="10" x1="142.835" y1="105.602" x2="183.769" y2="155.299"/>
	<line fill="none" stroke="#000000" stroke-miterlimit="10" x1="141.98" y1="106.102" x2="185.591" y2="193.848"/>
	<line fill="none" stroke="#000000" stroke-miterlimit="10" x1="195.323" y1="117.348" x2="232.489" y2="102.48"/>
	<line fill="none" stroke="#000000" stroke-miterlimit="10" x1="195.323" y1="122.48" x2="232.489" y2="137.346"/>
	<line fill="none" stroke="#000000" stroke-miterlimit="10" x1="192.835" y1="125.602" x2="233.769" y2="175.299"/>
	<line fill="none" stroke="#000000" stroke-miterlimit="10" x1="193.415" y1="154.68" x2="234.291" y2="105.053"/>
	<line fill="none" stroke="#000000" stroke-miterlimit="10" x1="195.323" y1="157.348" x2="232.489" y2="142.48"/>
	<line fill="none" stroke="#000000" stroke-miterlimit="10" x1="195.323" y1="162.48" x2="232.489" y2="177.346"/>
	<line fill="none" stroke="#000000" stroke-miterlimit="10" x1="191.864" y1="193.672" x2="235.808" y2="106.09"/>
	<line fill="none" stroke="#000000" stroke-miterlimit="10" x1="193.415" y1="194.68" x2="234.291" y2="145.053"/>
	<line fill="none" stroke="#000000" stroke-miterlimit="10" x1="195.323" y1="197.348" x2="232.489" y2="182.48"/>
	<line fill="none" stroke="#000000" stroke-miterlimit="10" x1="91.864" y1="113.672" x2="135.808" y2="26.089"/>
	<line fill="none" stroke="#000000" stroke-miterlimit="10" x1="93.415" y1="114.68" x2="134.291" y2="65.052"/>
	<line fill="none" stroke="#000000" stroke-miterlimit="10" x1="91.864" y1="153.672" x2="135.808" y2="66.09"/>
	<line fill="none" stroke="#000000" stroke-miterlimit="10" x1="93.415" y1="74.68" x2="134.291" y2="25.052"/>
	<line fill="none" stroke="#000000" stroke-miterlimit="10" x1="95.323" y1="77.348" x2="132.489" y2="62.481"/>
	<line fill="none" stroke="#000000" stroke-miterlimit="10" x1="95.323" y1="82.48" x2="132.489" y2="97.346"/>
	<line fill="none" stroke="#000000" stroke-miterlimit="10" x1="92.835" y1="85.602" x2="133.769" y2="135.299"/>
	<line fill="none" stroke="#000000" stroke-miterlimit="10" x1="91.98" y1="86.102" x2="135.591" y2="173.848"/>
	<line fill="none" stroke="#000000" stroke-miterlimit="10" x1="95.323" y1="37.348" x2="132.489" y2="22.481"/>
	<line fill="none" stroke="#000000" stroke-miterlimit="10" x1="95.323" y1="42.481" x2="132.489" y2="57.346"/>
	<line fill="none" stroke="#000000" stroke-miterlimit="10" x1="92.835" y1="45.601" x2="133.769" y2="95.299"/>
	<line fill="none" stroke="#000000" stroke-miterlimit="10" x1="91.98" y1="46.101" x2="135.591" y2="133.848"/>
	<line fill="none" stroke="#000000" stroke-miterlimit="10" x1="45.323" y1="57.348" x2="82.489" y2="42.481"/>
	<line fill="none" stroke="#000000" stroke-miterlimit="10" x1="45.323" y1="62.481" x2="82.489" y2="77.346"/>
	<line fill="none" stroke="#000000" stroke-miterlimit="10" x1="43.415" y1="94.68" x2="84.291" y2="45.052"/>
	<line fill="none" stroke="#000000" stroke-miterlimit="10" x1="45.323" y1="97.348" x2="82.489" y2="82.48"/>
	<line fill="none" stroke="#000000" stroke-miterlimit="10" x1="41.864" y1="133.672" x2="85.808" y2="46.089"/>
	<line fill="none" stroke="#000000" stroke-miterlimit="10" x1="43.415" y1="134.68" x2="84.291" y2="85.053"/>
	<line fill="none" stroke="#000000" stroke-miterlimit="10" x1="41.864" y1="173.672" x2="85.808" y2="86.09"/>
	<line fill="none" stroke="#000000" stroke-miterlimit="10" x1="141.864" y1="173.672" x2="185.808" y2="86.09"/>
	<line fill="none" stroke="#000000" stroke-miterlimit="10" x1="141.864" y1="133.672" x2="185.808" y2="46.089"/>
	<line fill="none" stroke="#000000" stroke-miterlimit="10" x1="143.415" y1="134.68" x2="184.291" y2="85.053"/>
	<line fill="none" stroke="#000000" stroke-miterlimit="10" x1="143.415" y1="94.68" x2="184.291" y2="45.052"/>
	<line fill="none" stroke="#000000" stroke-miterlimit="10" x1="145.323" y1="97.348" x2="182.489" y2="82.48"/>
	<line fill="none" stroke="#000000" stroke-miterlimit="10" x1="145.323" y1="57.348" x2="182.489" y2="42.481"/>
	<line fill="none" stroke="#000000" stroke-miterlimit="10" x1="145.323" y1="62.481" x2="182.489" y2="77.346"/>
	<line fill="none" stroke="#000000" stroke-miterlimit="10" x1="142.835" y1="65.601" x2="183.769" y2="115.299"/>
	<line fill="none" stroke="#000000" stroke-miterlimit="10" x1="141.98" y1="66.102" x2="185.591" y2="153.848"/>
	<line fill="none" stroke="#000000" stroke-miterlimit="10" x1="145.323" y1="22.481" x2="182.489" y2="37.346"/>
	<line fill="none" stroke="#000000" stroke-miterlimit="10" x1="142.835" y1="25.601" x2="183.769" y2="75.299"/>
	<line fill="none" stroke="#000000" stroke-miterlimit="10" x1="141.98" y1="26.101" x2="185.591" y2="113.848"/>
	<line fill="none" stroke="#000000" stroke-miterlimit="10" x1="243.415" y1="174.68" x2="284.291" y2="125.053"/>
	<line fill="none" stroke="#000000" stroke-miterlimit="10" x1="245.323" y1="137.348" x2="282.489" y2="122.48"/>
	<line fill="none" stroke="#000000" stroke-miterlimit="10" x1="245.323" y1="102.48" x2="282.489" y2="117.346"/>
	<line fill="none" stroke="#000000" stroke-miterlimit="10" x1="242.835" y1="65.601" x2="283.769" y2="115.299"/>
	<line fill="none" stroke="#000000" stroke-miterlimit="10" x1="195.323" y1="42.481" x2="232.489" y2="57.346"/>
	<line fill="none" stroke="#000000" stroke-miterlimit="10" x1="192.835" y1="45.601" x2="233.769" y2="95.299"/>
	<line fill="none" stroke="#000000" stroke-miterlimit="10" x1="191.98" y1="46.101" x2="235.591" y2="133.848"/>
	<line fill="none" stroke="#000000" stroke-miterlimit="10" x1="195.323" y1="77.348" x2="232.489" y2="62.481"/>
	<line fill="none" stroke="#000000" stroke-miterlimit="10" x1="195.323" y1="82.48" x2="232.489" y2="97.346"/>
	<line fill="none" stroke="#000000" stroke-miterlimit="10" x1="192.835" y1="85.602" x2="233.769" y2="135.299"/>
	<line fill="none" stroke="#000000" stroke-miterlimit="10" x1="191.98" y1="86.102" x2="235.591" y2="173.848"/>
	<line fill="none" stroke="#000000" stroke-miterlimit="10" x1="193.415" y1="114.68" x2="234.291" y2="65.052"/>
	<line fill="none" stroke="#000000" stroke-miterlimit="10" x1="191.864" y1="153.672" x2="235.808" y2="66.09"/>
	<line fill="none" stroke="#000000" stroke-miterlimit="10" x1="90.856" y1="46.024" x2="136.575" y2="173.412"/>
	<line fill="none" stroke="#000000" stroke-miterlimit="10" x1="90.741" y1="46.583" x2="136.575" y2="213.41"/>
	<line fill="none" stroke="#000000" stroke-miterlimit="10" x1="90.856" y1="86.023" x2="136.575" y2="213.412"/>
	<line fill="none" stroke="#000000" stroke-miterlimit="10" x1="90.856" y1="193.41" x2="136.575" y2="66.023"/>
	<line fill="none" stroke="#000000" stroke-miterlimit="10" x1="90.741" y1="192.852" x2="136.575" y2="26.024"/>
	<line fill="none" stroke="#000000" stroke-miterlimit="10" x1="90.856" y1="153.41" x2="136.575" y2="26.023"/>
	<line fill="none" stroke="#000000" stroke-miterlimit="10" x1="140.856" y1="213.41" x2="186.575" y2="86.023"/>
	<line fill="none" stroke="#000000" stroke-miterlimit="10" x1="140.741" y1="212.852" x2="186.575" y2="46.024"/>
	<line fill="none" stroke="#000000" stroke-miterlimit="10" x1="140.856" y1="173.41" x2="186.575" y2="46.023"/>
	<line fill="none" stroke="#000000" stroke-miterlimit="10" x1="140.856" y1="26.024" x2="186.575" y2="153.412"/>
	<line fill="none" stroke="#000000" stroke-miterlimit="10" x1="140.741" y1="26.583" x2="186.575" y2="193.41"/>
	<line fill="none" stroke="#000000" stroke-miterlimit="10" x1="140.856" y1="66.023" x2="186.575" y2="193.412"/>
	<line fill="none" stroke="#000000" stroke-miterlimit="10" x1="190.856" y1="46.024" x2="236.575" y2="173.412"/>
	<line fill="none" stroke="#000000" stroke-miterlimit="10" x1="40.856" y1="173.41" x2="86.575" y2="46.023"/>
	<line fill="none" stroke="#000000" stroke-miterlimit="10" x1="190.856" y1="193.41" x2="236.575" y2="66.023"/>
	<line fill="none" stroke="#000000" stroke-miterlimit="10" x1="42.835" y1="65.601" x2="83.769" y2="115.299"/>
	<line fill="none" stroke="#000000" stroke-miterlimit="10" x1="45.323" y1="102.48" x2="82.489" y2="117.346"/>
	<line fill="none" stroke="#000000" stroke-miterlimit="10" x1="45.323" y1="137.348" x2="82.489" y2="122.48"/>
	<line fill="none" stroke="#000000" stroke-miterlimit="10" x1="43.415" y1="174.68" x2="84.291" y2="125.053"/>
	<circle opacity="0.2" fill="#FCF8CE" stroke="#000000" stroke-miterlimit="10" cx="88.906" cy="159.914" r="6.915"/>
	<circle opacity="0.2" fill="#FCF8CE" stroke="#000000" stroke-miterlimit="10" cx="88.906" cy="199.914" r="6.915"/>
	<circle opacity="0.2" fill="#FCF8CE" stroke="#000000" stroke-miterlimit="10" cx="238.906" cy="179.914" r="6.915"/>
	<circle opacity="0.2" fill="#FCF8CE" stroke="#000000" stroke-miterlimit="10" cx="238.906" cy="139.914" r="6.915"/>
	<circle opacity="0.2" fill="#FCF8CE" stroke="#000000" stroke-miterlimit="10" cx="238.906" cy="99.914" r="6.915"/>
	<circle opacity="0.2" fill="#FCF8CE" stroke="#000000" stroke-miterlimit="10" cx="188.906" cy="119.914" r="6.915"/>
	<circle opacity="0.2" fill="#FCF8CE" stroke="#000000" stroke-miterlimit="10" cx="188.906" cy="159.914" r="6.915"/>
	<circle opacity="0.2" fill="#FCF8CE" stroke="#000000" stroke-miterlimit="10" cx="188.906" cy="199.914" r="6.915"/>
	<circle opacity="0.2" fill="#FCF8CE" stroke="#000000" stroke-miterlimit="10" cx="138.906" cy="219.914" r="6.915"/>
	<circle opacity="0.2" fill="#FCF8CE" stroke="#000000" stroke-miterlimit="10" cx="138.906" cy="179.914" r="6.915"/>
	<circle opacity="0.2" fill="#FCF8CE" stroke="#000000" stroke-miterlimit="10" cx="138.906" cy="139.914" r="6.915"/>
	<circle opacity="0.2" fill="#FCF8CE" stroke="#000000" stroke-miterlimit="10" cx="138.906" cy="99.914" r="6.915"/>
	<circle opacity="0.2" fill="#FCF8CE" stroke="#000000" stroke-miterlimit="10" cx="238.906" cy="59.915" r="6.915"/>
	<circle opacity="0.2" fill="#FCF8CE" stroke="#000000" stroke-miterlimit="10" cx="88.906" cy="79.914" r="6.915"/>
	<circle opacity="0.2" fill="#FCF8CE" stroke="#000000" stroke-miterlimit="10" cx="88.906" cy="39.915" r="6.915"/>
	<circle opacity="0.2" fill="#FCF8CE" stroke="#000000" stroke-miterlimit="10" cx="188.906" cy="79.914" r="6.915"/>
	<circle opacity="0.2" fill="#FCF8CE" stroke="#000000" stroke-miterlimit="10" cx="188.906" cy="39.915" r="6.915"/>
	<circle opacity="0.2" fill="#FCF8CE" stroke="#000000" stroke-miterlimit="10" cx="138.906" cy="59.915" r="6.915"/>
	<circle opacity="0.2" fill="#FCF8CE" stroke="#000000" stroke-miterlimit="10" cx="138.906" cy="19.915" r="6.915"/>
	<circle opacity="0.2" fill="#FCF8CE" stroke="#000000" stroke-miterlimit="10" cx="288.906" cy="119.914" r="6.915"/>
	<circle opacity="0.2" fill="#FCF8CE" stroke="#000000" stroke-miterlimit="10" cx="38.906" cy="179.914" r="6.915"/>
	<circle opacity="0.2" fill="#FCF8CE" stroke="#000000" stroke-miterlimit="10" cx="38.906" cy="139.914" r="6.915"/>
	<circle opacity="0.2" fill="#FCF8CE" stroke="#000000" stroke-miterlimit="10" cx="38.906" cy="99.914" r="6.915"/>
	<circle opacity="0.2" fill="#FCF8CE" stroke="#000000" stroke-miterlimit="10" cx="38.906" cy="59.915" r="6.915"/>
	<circle opacity="0.2" fill="#FCF8CE" stroke="#000000" stroke-miterlimit="10" cx="88.906" cy="119.914" r="6.915"/>
</g>
<g id="Layer_1">
	<circle fill="#FCF8CE" stroke="#000000" stroke-miterlimit="10" cx="38.906" cy="179.914" r="6.915"/>
	<circle fill="#FCF8CE" stroke="#000000" stroke-miterlimit="10" cx="38.906" cy="139.914" r="6.915"/>
	<circle fill="#FCF8CE" stroke="#000000" stroke-miterlimit="10" cx="38.906" cy="99.914" r="6.915"/>
	<circle fill="#FCF8CE" stroke="#000000" stroke-miterlimit="10" cx="38.906" cy="59.915" r="6.915"/>
	<g>
		<defs>
			<rect id="SVGID_1_" x="11.009" y="52.915" width="17" height="12"/>
		</defs>
		<clipPath id="SVGID_2_">
			<use xlink:href="#SVGID_1_"  overflow="visible"/>
		</clipPath>
		<path clip-path="url(#SVGID_2_)" d="M16.881,55.915c0.107-0.466,0.519-2.109,1.77-2.109c0.09,0,0.52,0,0.895,0.231
			c-0.5,0.09-0.858,0.537-0.858,0.965c0,0.286,0.197,0.627,0.68,0.627c0.394,0,0.966-0.322,0.966-1.037
			c0-0.93-1.055-1.18-1.662-1.18c-1.038,0-1.664,0.946-1.879,1.359c-0.446-1.182-1.412-1.359-1.931-1.359
			c-1.859,0-2.878,2.306-2.878,2.753c0,0.18,0.178,0.18,0.214,0.18c0.142,0,0.196-0.036,0.232-0.197
			c0.608-1.896,1.788-2.342,2.396-2.342c0.341,0,0.966,0.161,0.966,1.196c0,0.555-0.304,1.754-0.966,4.257
			c-0.286,1.107-0.911,1.859-1.698,1.859c-0.108,0-0.519,0-0.894-0.233c0.446-0.089,0.84-0.464,0.84-0.965
			c0-0.483-0.394-0.625-0.662-0.625c-0.536,0-0.982,0.464-0.982,1.037c0,0.822,0.894,1.18,1.681,1.18
			c1.18,0,1.823-1.252,1.877-1.359c0.214,0.662,0.857,1.359,1.931,1.359c1.843,0,2.861-2.307,2.861-2.753
			c0-0.18-0.161-0.18-0.214-0.18c-0.161,0-0.197,0.071-0.233,0.196c-0.59,1.913-1.806,2.343-2.378,2.343
			c-0.696,0-0.982-0.572-0.982-1.18c0-0.394,0.106-0.788,0.303-1.573L16.881,55.915"/>
		<path clip-path="url(#SVGID_2_)" d="M25.407,56.044c0-0.338-0.025-0.351-0.377-0.351c-0.802,0.789-1.942,0.802-2.456,0.802v0.451
			c0.302,0,1.129,0,1.817-0.352v6.391c0,0.414,0,0.577-1.253,0.577h-0.477v0.451c0.227-0.013,1.767-0.05,2.23-0.05
			c0.39,0,1.968,0.037,2.244,0.05v-0.451H26.66c-1.253,0-1.253-0.163-1.253-0.577V56.044"/>
	</g>
	<g>
		<defs>
			<rect id="SVGID_3_" x="10.18" y="92.914" width="17" height="12"/>
		</defs>
		<clipPath id="SVGID_4_">
			<use xlink:href="#SVGID_3_"  overflow="visible"/>
		</clipPath>
		<path clip-path="url(#SVGID_4_)" d="M16.052,95.914c0.107-0.465,0.519-2.109,1.77-2.109c0.09,0,0.52,0,0.895,0.232
			c-0.5,0.09-0.858,0.537-0.858,0.965c0,0.285,0.197,0.627,0.68,0.627c0.394,0,0.966-0.322,0.966-1.037
			c0-0.93-1.055-1.18-1.662-1.18c-1.038,0-1.664,0.945-1.879,1.359c-0.446-1.182-1.412-1.359-1.931-1.359
			c-1.859,0-2.878,2.305-2.878,2.752c0,0.18,0.178,0.18,0.214,0.18c0.142,0,0.196-0.035,0.232-0.197
			c0.608-1.895,1.788-2.342,2.396-2.342c0.341,0,0.966,0.162,0.966,1.197c0,0.555-0.304,1.754-0.966,4.256
			c-0.286,1.107-0.911,1.859-1.698,1.859c-0.108,0-0.519,0-0.894-0.232c0.446-0.09,0.84-0.465,0.84-0.965
			c0-0.484-0.394-0.625-0.662-0.625c-0.536,0-0.982,0.463-0.982,1.037c0,0.822,0.894,1.18,1.681,1.18
			c1.18,0,1.823-1.252,1.877-1.359c0.214,0.662,0.857,1.359,1.931,1.359c1.843,0,2.861-2.307,2.861-2.754
			c0-0.18-0.161-0.18-0.214-0.18c-0.161,0-0.197,0.072-0.233,0.197c-0.59,1.912-1.806,2.342-2.378,2.342
			c-0.696,0-0.982-0.572-0.982-1.18c0-0.393,0.106-0.787,0.303-1.572L16.052,95.914"/>
		<path clip-path="url(#SVGID_4_)" d="M26.708,101.732h-0.426c-0.037,0.277-0.164,1.016-0.326,1.141
			c-0.1,0.076-1.065,0.076-1.24,0.076h-2.307c1.315-1.166,1.755-1.516,2.506-2.105c0.929-0.738,1.793-1.518,1.793-2.707
			c0-1.516-1.328-2.443-2.932-2.443c-1.555,0-2.607,1.09-2.607,2.242c0,0.641,0.539,0.703,0.664,0.703
			c0.301,0,0.664-0.213,0.664-0.664c0-0.227-0.088-0.664-0.739-0.664c0.389-0.891,1.241-1.166,1.829-1.166
			c1.254,0,1.905,0.979,1.905,1.992c0,1.09-0.776,1.955-1.179,2.406l-3.02,2.982c-0.125,0.113-0.125,0.137-0.125,0.488h5.164
			L26.708,101.732"/>
	</g>
	<g>
		<defs>
			<rect id="SVGID_5_" x="11.009" y="133.914" width="17" height="12"/>
		</defs>
		<clipPath id="SVGID_6_">
			<use xlink:href="#SVGID_5_"  overflow="visible"/>
		</clipPath>
		<path clip-path="url(#SVGID_6_)" d="M16.881,136.715c0.107-0.465,0.519-2.109,1.77-2.109c0.09,0,0.52,0,0.895,0.23
			c-0.5,0.092-0.858,0.539-0.858,0.967c0,0.285,0.197,0.627,0.68,0.627c0.394,0,0.966-0.322,0.966-1.039
			c0-0.93-1.055-1.18-1.662-1.18c-1.038,0-1.664,0.947-1.879,1.359c-0.446-1.18-1.412-1.359-1.931-1.359
			c-1.859,0-2.878,2.307-2.878,2.754c0,0.18,0.178,0.18,0.214,0.18c0.142,0,0.196-0.035,0.232-0.197
			c0.608-1.895,1.788-2.342,2.396-2.342c0.341,0,0.966,0.16,0.966,1.197c0,0.555-0.304,1.752-0.966,4.256
			c-0.286,1.107-0.911,1.859-1.698,1.859c-0.108,0-0.519,0-0.894-0.232c0.446-0.09,0.84-0.465,0.84-0.967
			c0-0.482-0.394-0.625-0.662-0.625c-0.536,0-0.982,0.465-0.982,1.039c0,0.82,0.894,1.18,1.681,1.18c1.18,0,1.823-1.252,1.877-1.359
			c0.214,0.662,0.857,1.359,1.931,1.359c1.843,0,2.861-2.307,2.861-2.754c0-0.18-0.161-0.18-0.214-0.18
			c-0.161,0-0.197,0.072-0.233,0.197c-0.59,1.912-1.806,2.342-2.378,2.342c-0.696,0-0.982-0.572-0.982-1.18
			c0-0.395,0.106-0.787,0.303-1.574L16.881,136.715"/>
		<path clip-path="url(#SVGID_6_)" d="M24.631,140.629c0.977,0,1.678,0.676,1.678,2.018c0,1.555-0.901,2.018-1.628,2.018
			c-0.502,0-1.604-0.137-2.132-0.877c0.59-0.025,0.727-0.438,0.727-0.701c0-0.4-0.3-0.689-0.688-0.689
			c-0.351,0-0.702,0.213-0.702,0.727c0,1.178,1.304,1.941,2.82,1.941c1.741,0,2.944-1.164,2.944-2.418
			c0-0.977-0.802-1.955-2.18-2.242c1.315-0.477,1.792-1.416,1.792-2.182c0-0.988-1.141-1.729-2.531-1.729
			c-1.393,0-2.456,0.678-2.456,1.678c0,0.428,0.274,0.664,0.651,0.664c0.388,0,0.639-0.287,0.639-0.639
			c0-0.361-0.251-0.627-0.639-0.65c0.438-0.553,1.303-0.689,1.768-0.689c0.563,0,1.353,0.275,1.353,1.365
			c0,0.527-0.175,1.104-0.501,1.492c-0.414,0.477-0.765,0.502-1.391,0.539c-0.314,0.025-0.34,0.025-0.402,0.037
			c-0.024,0-0.125,0.025-0.125,0.162c0,0.176,0.113,0.176,0.326,0.176H24.631"/>
	</g>
	<g>
		<defs>
			<rect id="SVGID_7_" x="10.18" y="173.914" width="17" height="12"/>
		</defs>
		<clipPath id="SVGID_8_">
			<use xlink:href="#SVGID_7_"  overflow="visible"/>
		</clipPath>
		<path clip-path="url(#SVGID_8_)" d="M16.052,176.914c0.107-0.465,0.519-2.109,1.77-2.109c0.09,0,0.52,0,0.895,0.232
			c-0.5,0.09-0.858,0.537-0.858,0.965c0,0.285,0.197,0.627,0.68,0.627c0.394,0,0.966-0.322,0.966-1.037
			c0-0.93-1.055-1.18-1.662-1.18c-1.038,0-1.664,0.945-1.879,1.359c-0.446-1.182-1.412-1.359-1.931-1.359
			c-1.859,0-2.878,2.305-2.878,2.752c0,0.18,0.178,0.18,0.214,0.18c0.142,0,0.196-0.035,0.232-0.197
			c0.608-1.895,1.788-2.342,2.396-2.342c0.341,0,0.966,0.162,0.966,1.197c0,0.555-0.304,1.754-0.966,4.256
			c-0.286,1.107-0.911,1.859-1.698,1.859c-0.108,0-0.519,0-0.894-0.232c0.446-0.09,0.84-0.465,0.84-0.965
			c0-0.484-0.394-0.625-0.662-0.625c-0.536,0-0.982,0.463-0.982,1.037c0,0.822,0.894,1.18,1.681,1.18
			c1.18,0,1.823-1.252,1.877-1.359c0.214,0.662,0.857,1.359,1.931,1.359c1.843,0,2.861-2.307,2.861-2.754
			c0-0.18-0.161-0.18-0.214-0.18c-0.161,0-0.197,0.072-0.233,0.197c-0.59,1.912-1.806,2.342-2.378,2.342
			c-0.696,0-0.982-0.572-0.982-1.18c0-0.393,0.106-0.787,0.303-1.572L16.052,176.914"/>
		<path clip-path="url(#SVGID_8_)" d="M24.641,177.92v4.588h-3.308L24.641,177.92z M27.009,182.959v-0.451h-1.392v-5.588
			c0-0.266,0-0.352-0.275-0.352c-0.149,0-0.2,0-0.325,0.176l-4.148,5.764v0.451h3.685v1.027c0,0.426,0,0.576-1.016,0.576H23.2v0.451
			c0.626-0.023,1.428-0.049,1.879-0.049c0.463,0,1.266,0.025,1.893,0.049v-0.451h-0.339c-1.016,0-1.016-0.15-1.016-0.576v-1.027
			H27.009z"/>
	</g>
</g>
<g id="Layer_4">
	<circle fill="#FCF8CE" stroke="#000000" stroke-miterlimit="10" cx="88.906" cy="159.914" r="6.915"/>
	<circle fill="#FCF8CE" stroke="#000000" stroke-miterlimit="10" cx="88.906" cy="199.914" r="6.915"/>
	<circle fill="#FCF8CE" stroke="#000000" stroke-miterlimit="10" cx="88.906" cy="79.914" r="6.915"/>
	<circle fill="#FCF8CE" stroke="#000000" stroke-miterlimit="10" cx="88.906" cy="39.915" r="6.915"/>
	<circle fill="#FCF8CE" stroke="#000000" stroke-miterlimit="10" cx="88.906" cy="119.914" r="6.915"/>
</g>
<g id="Layer_5">
	<circle fill="#FCF8CE" stroke="#000000" stroke-miterlimit="10" cx="138.906" cy="219.914" r="6.915"/>
	<circle fill="#FCF8CE" stroke="#000000" stroke-miterlimit="10" cx="138.906" cy="179.914" r="6.915"/>
	<circle fill="#FCF8CE" stroke="#000000" stroke-miterlimit="10" cx="138.906" cy="139.914" r="6.915"/>
	<circle fill="#FCF8CE" stroke="#000000" stroke-miterlimit="10" cx="138.906" cy="99.914" r="6.915"/>
	<circle fill="#FCF8CE" stroke="#000000" stroke-miterlimit="10" cx="138.906" cy="59.915" r="6.915"/>
	<circle fill="#FCF8CE" stroke="#000000" stroke-miterlimit="10" cx="138.906" cy="19.915" r="6.915"/>
</g>
<g id="Layer_6">
	<circle fill="#FCF8CE" stroke="#000000" stroke-miterlimit="10" cx="188.906" cy="119.914" r="6.915"/>
	<circle fill="#FCF8CE" stroke="#000000" stroke-miterlimit="10" cx="188.906" cy="159.914" r="6.915"/>
	<circle fill="#FCF8CE" stroke="#000000" stroke-miterlimit="10" cx="188.906" cy="199.914" r="6.915"/>
	<circle fill="#FCF8CE" stroke="#000000" stroke-miterlimit="10" cx="188.906" cy="79.914" r="6.915"/>
	<circle fill="#FCF8CE" stroke="#000000" stroke-miterlimit="10" cx="188.906" cy="39.915" r="6.915"/>
</g>
<g id="Layer_7">
	<circle fill="#FCF8CE" stroke="#000000" stroke-miterlimit="10" cx="238.906" cy="179.914" r="6.915"/>
	<circle fill="#FCF8CE" stroke="#000000" stroke-miterlimit="10" cx="238.906" cy="139.914" r="6.915"/>
	<circle fill="#FCF8CE" stroke="#000000" stroke-miterlimit="10" cx="238.906" cy="99.914" r="6.915"/>
	<circle fill="#FCF8CE" stroke="#000000" stroke-miterlimit="10" cx="238.906" cy="59.915" r="6.915"/>
</g>
<g id="Layer_8">
	<circle fill="#FCF8CE" stroke="#000000" stroke-miterlimit="10" cx="288.906" cy="119.914" r="6.915"/>
	<g>
		<defs>
			<rect id="SVGID_9_" x="303.468" y="111.794" width="9" height="17"/>
		</defs>
		<clipPath id="SVGID_10_">
			<use xlink:href="#SVGID_9_"  overflow="visible"/>
		</clipPath>
		<polyline clip-path="url(#SVGID_10_)" points="309.139,112.185 306.741,114.616 307.063,114.938 309.139,113.114 311.194,114.938 
			311.517,114.616 309.139,112.185 		"/>
		<path clip-path="url(#SVGID_10_)" d="M312.158,117.782c0.07-0.25,0.07-0.286,0.07-0.411c0-0.322-0.25-0.483-0.517-0.483
			c-0.18,0-0.466,0.106-0.627,0.375c-0.036,0.09-0.178,0.645-0.25,0.966c-0.125,0.466-0.25,0.948-0.357,1.432l-0.805,3.217
			c-0.072,0.269-0.841,1.521-2.021,1.521c-0.912,0-1.109-0.786-1.109-1.448c0-0.822,0.305-1.932,0.912-3.505
			c0.286-0.732,0.358-0.93,0.358-1.287c0-0.805-0.572-1.466-1.468-1.466c-1.698,0-2.359,2.592-2.359,2.753
			c0,0.18,0.179,0.18,0.215,0.18c0.18,0,0.196-0.036,0.285-0.322c0.483-1.681,1.199-2.217,1.807-2.217c0.144,0,0.447,0,0.447,0.572
			c0,0.446-0.179,0.91-0.304,1.251c-0.716,1.896-1.037,2.914-1.037,3.755c0,1.592,1.126,2.128,2.181,2.128
			c0.697,0,1.305-0.305,1.807-0.805c-0.232,0.93-0.447,1.807-1.162,2.753c-0.466,0.608-1.145,1.127-1.968,1.127
			c-0.25,0-1.055-0.053-1.359-0.75c0.288,0,0.519,0,0.771-0.216c0.178-0.161,0.356-0.394,0.356-0.732
			c0-0.555-0.483-0.625-0.661-0.625c-0.411,0-1.002,0.286-1.002,1.161c0,0.895,0.788,1.556,1.896,1.556
			c1.843,0,3.685-1.626,4.185-3.648L312.158,117.782"/>
	</g>
</g>
<g id="Layer_9">
	<circle fill="#F9CBCC" stroke="#000000" stroke-miterlimit="10" cx="288.906" cy="119.914" r="6.915"/>
	<g>
		<path d="M208.677,17.097c0.16-0.644,0.214-0.841,1.895-0.841c0.536,0,0.68,0,0.68-0.34c0-0.215-0.196-0.215-0.285-0.215
			c-0.591,0-2.057,0.054-2.647,0.054c-0.536,0-1.842-0.054-2.378-0.054c-0.125,0-0.339,0-0.339,0.358c0,0.196,0.161,0.196,0.5,0.196
			c0.036,0,0.375,0,0.68,0.036c0.321,0.036,0.482,0.054,0.482,0.286c0,0.072-0.019,0.125-0.071,0.339l-2.396,9.602
			c-0.18,0.698-0.216,0.841-1.628,0.841c-0.304,0-0.483,0-0.483,0.357c0,0.197,0.161,0.197,0.483,0.197h8.279
			c0.428,0,0.447,0,0.553-0.305l1.413-3.861c0.071-0.196,0.071-0.232,0.071-0.251c0-0.07-0.053-0.195-0.214-0.195
			s-0.18,0.089-0.305,0.375c-0.607,1.646-1.394,3.683-4.487,3.683h-1.682c-0.25,0-0.285,0-0.392-0.018
			c-0.18-0.019-0.233-0.035-0.233-0.18c0-0.053,0-0.089,0.09-0.41L208.677,17.097"/>
		<path d="M217.636,22.332c-0.114-0.276-0.214-0.276-0.477-0.276h-2.193v0.451h0.301c0.965,0,0.989,0.125,0.989,0.564v6.19
			c0,0.338,0,0.901-1.29,0.901v0.452c0.514-0.038,1.016-0.05,1.529-0.05s1.014,0.012,1.528,0.05v-0.452
			c-1.29,0-1.29-0.563-1.29-0.901v-6.604l0.012-0.013l3.258,7.683c0.064,0.15,0.127,0.288,0.314,0.288
			c0.087,0,0.199-0.038,0.3-0.263l3.31-7.833l0.012,0.013v7.067c0,0.427-0.024,0.563-0.99,0.563h-0.3v0.452
			c0.602-0.025,1.303-0.05,1.817-0.05c0.512,0,1.215,0.024,1.816,0.05v-0.452h-0.301c-0.965,0-0.989-0.125-0.989-0.563v-6.528
			c0-0.427,0.024-0.564,0.989-0.564h0.301v-0.451h-2.181c-0.25,0-0.364,0-0.464,0.252l-3.008,7.104L217.636,22.332"/>
		<path d="M230.209,25.389c-1.103-0.251-1.44-1.04-1.44-1.566c0-0.827,0.764-1.617,1.904-1.617c1.693,0,2.419,1.128,2.619,2.443
			c0.025,0.189,0.037,0.252,0.225,0.252c0.215,0,0.215-0.088,0.215-0.327V22.13c0-0.213,0-0.325-0.177-0.325
			c-0.101,0-0.125,0.037-0.213,0.175l-0.451,0.702c-0.827-0.84-1.867-0.877-2.218-0.877c-1.579,0-2.707,1.128-2.707,2.394
			c0,0.702,0.313,1.241,0.766,1.666c0.5,0.489,0.914,0.576,2.267,0.878c1.141,0.25,1.393,0.3,1.755,0.651
			c0.289,0.288,0.552,0.689,0.552,1.253c0,0.877-0.727,1.768-1.93,1.768c-1.216,0-2.896-0.477-2.983-2.369
			c-0.012-0.199-0.012-0.276-0.212-0.276c-0.214,0-0.214,0.089-0.214,0.339v2.432c0,0.213,0,0.325,0.176,0.325
			c0.101,0,0.125-0.038,0.2-0.15c0.112-0.149,0.364-0.552,0.464-0.714c0.789,0.689,1.755,0.864,2.569,0.864
			c1.654,0,2.731-1.241,2.731-2.569c0-1.128-0.789-2.191-2.043-2.48L230.209,25.389"/>
		<path d="M244.212,27.319h-0.426c-0.325,1.893-0.614,2.844-2.934,2.844h-1.979c-0.589,0-0.602-0.1-0.602-0.488v-3.258h1.266
			c1.267,0,1.455,0.376,1.455,1.467h0.425v-3.385h-0.425c0,1.091-0.188,1.466-1.455,1.466h-1.266v-2.919
			c0-0.389,0.013-0.488,0.602-0.488h1.88c2.057,0,2.419,0.676,2.644,2.431h0.427l-0.375-2.883h-7.658v0.452h0.302
			c0.964,0,0.989,0.125,0.989,0.563v6.479c0,0.427-0.025,0.563-0.989,0.563h-0.302v0.452h7.858L244.212,27.319"/>
		<path d="M262.891,25.537c0.25,0,0.591,0,0.591-0.358c0-0.357-0.341-0.357-0.608-0.357h-10.675c-0.269,0-0.607,0-0.607,0.357
			c0,0.358,0.339,0.358,0.589,0.358H262.891 M262.873,22.068c0.268,0,0.608,0,0.608-0.358c0-0.357-0.341-0.357-0.591-0.357H252.18
			c-0.25,0-0.589,0-0.589,0.357c0,0.358,0.339,0.358,0.607,0.358H262.873z"/>
		<path d="M276.945,4.371c0-0.43,0-0.464-0.411-0.464c-1.107,1.144-2.682,1.144-3.255,1.144v0.555c0.358,0,1.414,0,2.344-0.466
			v9.263c0,0.644-0.055,0.858-1.664,0.858h-0.571v0.555c0.626-0.054,2.181-0.054,2.896-0.054s2.271,0,2.896,0.054V15.26h-0.571
			c-1.609,0-1.664-0.197-1.664-0.858V4.371"/>
		
			<line fill="none" stroke="#000000" stroke-width="0.7164" stroke-miterlimit="10" x1="271.646" y1="23.42" x2="280.612" y2="23.42"/>
		<path d="M273.959,38.838l1.896-1.843c2.791-2.467,3.862-3.433,3.862-5.22c0-2.039-1.608-3.469-3.79-3.469
			c-2.021,0-3.344,1.644-3.344,3.235c0,1.002,0.894,1.002,0.948,1.002c0.303,0,0.93-0.216,0.93-0.948c0-0.465-0.322-0.93-0.948-0.93
			c-0.143,0-0.179,0-0.233,0.019c0.413-1.163,1.378-1.825,2.414-1.825c1.628,0,2.397,1.448,2.397,2.916
			c0,1.43-0.895,2.842-1.879,3.951l-3.433,3.826c-0.196,0.195-0.196,0.231-0.196,0.661h6.634l0.5-3.11h-0.446
			c-0.09,0.535-0.215,1.323-0.395,1.59c-0.125,0.145-1.305,0.145-1.697,0.145H273.959"/>
		<path d="M308.427,35.948l2.162-5.723h-0.447c-0.697,1.859-2.592,3.075-4.648,3.613c-0.375,0.089-2.127,0.553-5.561,0.553h-10.783
			l9.102-10.674c0.125-0.144,0.161-0.196,0.161-0.285c0-0.036,0-0.091-0.125-0.27l-8.333-11.391h9.799
			c2.396,0,4.023,0.252,4.184,0.286c0.967,0.144,2.522,0.447,3.936,1.343c0.447,0.285,1.662,1.09,2.27,2.539h0.447l-2.162-5.025
			H287.29c-0.41,0-0.428,0.018-0.482,0.125c-0.018,0.053-0.018,0.394-0.018,0.591l9.46,12.945l-9.263,10.853
			c-0.18,0.216-0.18,0.305-0.18,0.322c0,0.197,0.161,0.197,0.482,0.197H308.427"/>
		<path d="M297.692,47.549c-0.051,0.162-0.113,0.312-0.113,0.524c0,0.589,0.502,1.065,1.191,1.065c1.253,0,1.805-1.729,1.805-1.917
			c0-0.162-0.163-0.162-0.2-0.162c-0.175,0-0.189,0.075-0.239,0.212c-0.287,1.004-0.839,1.518-1.328,1.518
			c-0.25,0-0.312-0.164-0.312-0.439c0-0.289,0.088-0.526,0.2-0.801c0.125-0.34,0.263-0.677,0.401-1.004
			c0.112-0.3,0.564-1.44,0.614-1.592c0.037-0.125,0.075-0.275,0.075-0.4c0-0.589-0.502-1.065-1.191-1.065
			c-1.24,0-1.816,1.705-1.816,1.917c0,0.163,0.175,0.163,0.213,0.163c0.176,0,0.188-0.062,0.226-0.2
			c0.325-1.078,0.877-1.528,1.341-1.528c0.2,0,0.312,0.101,0.312,0.438c0,0.289-0.074,0.477-0.387,1.253L297.692,47.549
			 M300.25,41.182c0-0.2-0.151-0.476-0.502-0.476c-0.339,0-0.701,0.325-0.701,0.689c0,0.212,0.162,0.475,0.5,0.475
			C299.911,41.871,300.25,41.521,300.25,41.182z"/>
		<path d="M317.608,32.206c0-0.054,0-0.09-0.306-0.393c-2.233-2.253-2.806-5.633-2.806-8.369c0-3.11,0.68-6.222,2.878-8.457
			c0.233-0.215,0.233-0.25,0.233-0.304c0-0.125-0.072-0.18-0.181-0.18c-0.178,0-1.786,1.216-2.842,3.487
			c-0.913,1.968-1.127,3.952-1.127,5.453c0,1.396,0.196,3.559,1.18,5.58c1.073,2.198,2.611,3.361,2.789,3.361
			C317.536,32.385,317.608,32.332,317.608,32.206"/>
		<path d="M327.28,21.102c0.07-0.25,0.07-0.286,0.07-0.411c0-0.321-0.25-0.482-0.518-0.482c-0.18,0-0.467,0.106-0.627,0.375
			c-0.036,0.089-0.178,0.644-0.25,0.966c-0.125,0.465-0.25,0.948-0.358,1.431l-0.804,3.218c-0.072,0.269-0.841,1.52-2.021,1.52
			c-0.912,0-1.108-0.785-1.108-1.448c0-0.821,0.305-1.931,0.913-3.505c0.285-0.732,0.357-0.93,0.357-1.287
			c0-0.805-0.572-1.466-1.468-1.466c-1.698,0-2.358,2.593-2.358,2.753c0,0.18,0.178,0.18,0.213,0.18
			c0.181,0,0.197-0.035,0.287-0.321c0.482-1.682,1.197-2.218,1.806-2.218c0.144,0,0.446,0,0.446,0.572
			c0,0.447-0.178,0.911-0.303,1.252c-0.716,1.895-1.037,2.914-1.037,3.754c0,1.593,1.127,2.129,2.182,2.129
			c0.695,0,1.304-0.305,1.806-0.805c-0.233,0.93-0.446,1.806-1.163,2.753c-0.465,0.607-1.143,1.126-1.967,1.126
			c-0.25,0-1.055-0.053-1.359-0.75c0.287,0,0.519,0,0.771-0.215c0.178-0.161,0.356-0.395,0.356-0.733
			c0-0.555-0.483-0.625-0.662-0.625c-0.41,0-1,0.286-1,1.161c0,0.896,0.787,1.557,1.895,1.557c1.842,0,3.684-1.627,4.184-3.648
			L327.28,21.102"/>
		<path d="M328.892,29.149c-0.05,0.162-0.111,0.312-0.111,0.525c0,0.589,0.5,1.065,1.189,1.065c1.253,0,1.805-1.729,1.805-1.917
			c0-0.163-0.162-0.163-0.199-0.163c-0.176,0-0.189,0.075-0.239,0.213c-0.288,1.003-0.839,1.517-1.328,1.517
			c-0.25,0-0.313-0.164-0.313-0.438c0-0.289,0.088-0.526,0.201-0.802c0.125-0.339,0.262-0.677,0.401-1.003
			c0.112-0.3,0.563-1.44,0.614-1.593c0.037-0.125,0.074-0.274,0.074-0.399c0-0.589-0.502-1.065-1.19-1.065
			c-1.24,0-1.817,1.704-1.817,1.917c0,0.162,0.176,0.162,0.213,0.162c0.176,0,0.189-0.062,0.227-0.2
			c0.324-1.078,0.877-1.527,1.341-1.527c0.2,0,0.312,0.1,0.312,0.438c0,0.289-0.074,0.477-0.387,1.253L328.892,29.149
			 M331.45,22.782c0-0.2-0.152-0.475-0.502-0.475c-0.34,0-0.701,0.324-0.701,0.688c0,0.213,0.162,0.476,0.5,0.476
			C331.11,23.471,331.45,23.121,331.45,22.782z"/>
		<path d="M349.172,23.802c0.306,0,0.626,0,0.626-0.358c0-0.357-0.32-0.357-0.626-0.357h-9.674c-0.304,0-0.625,0-0.625,0.357
			c0,0.358,0.321,0.358,0.625,0.358H349.172"/>
		<polyline points="361.06,15.505 358.662,17.936 358.983,18.258 361.06,16.435 363.116,18.258 363.437,17.936 361.06,15.505 		"/>
		<path d="M363.979,21.102c0.07-0.25,0.07-0.286,0.07-0.411c0-0.321-0.25-0.482-0.518-0.482c-0.18,0-0.465,0.106-0.627,0.375
			c-0.035,0.089-0.178,0.644-0.25,0.966c-0.125,0.465-0.25,0.948-0.357,1.431l-0.805,3.218c-0.071,0.269-0.84,1.52-2.021,1.52
			c-0.911,0-1.108-0.785-1.108-1.448c0-0.821,0.305-1.931,0.912-3.505c0.285-0.732,0.357-0.93,0.357-1.287
			c0-0.805-0.572-1.466-1.467-1.466c-1.698,0-2.359,2.593-2.359,2.753c0,0.18,0.178,0.18,0.215,0.18c0.18,0,0.196-0.035,0.285-0.321
			c0.483-1.682,1.198-2.218,1.807-2.218c0.144,0,0.447,0,0.447,0.572c0,0.447-0.179,0.911-0.304,1.252
			c-0.716,1.895-1.038,2.914-1.038,3.754c0,1.593,1.127,2.129,2.182,2.129c0.696,0,1.305-0.305,1.807-0.805
			c-0.232,0.93-0.447,1.806-1.163,2.753c-0.465,0.607-1.144,1.126-1.967,1.126c-0.25,0-1.056-0.053-1.359-0.75
			c0.287,0,0.519,0,0.771-0.215c0.178-0.161,0.355-0.395,0.355-0.733c0-0.555-0.482-0.625-0.66-0.625
			c-0.412,0-1.002,0.286-1.002,1.161c0,0.896,0.787,1.557,1.896,1.557c1.842,0,3.684-1.627,4.184-3.648L363.979,21.102"/>
		<path d="M365.592,29.149c-0.05,0.162-0.112,0.312-0.112,0.525c0,0.589,0.502,1.065,1.19,1.065c1.253,0,1.806-1.729,1.806-1.917
			c0-0.163-0.164-0.163-0.201-0.163c-0.174,0-0.188,0.075-0.238,0.213c-0.288,1.003-0.84,1.517-1.328,1.517
			c-0.25,0-0.312-0.164-0.312-0.438c0-0.289,0.088-0.526,0.199-0.802c0.125-0.339,0.264-0.677,0.402-1.003
			c0.111-0.3,0.564-1.44,0.613-1.593c0.037-0.125,0.076-0.274,0.076-0.399c0-0.589-0.502-1.065-1.191-1.065
			c-1.24,0-1.817,1.704-1.817,1.917c0,0.162,0.175,0.162,0.214,0.162c0.176,0,0.188-0.062,0.225-0.2
			c0.326-1.078,0.877-1.527,1.342-1.527c0.199,0,0.312,0.1,0.312,0.438c0,0.289-0.076,0.477-0.388,1.253L365.592,29.149
			 M368.149,22.782c0-0.2-0.151-0.475-0.502-0.475c-0.338,0-0.701,0.324-0.701,0.688c0,0.213,0.162,0.476,0.5,0.476
			C367.812,23.471,368.149,23.121,368.149,22.782z"/>
		<path d="M375.256,23.444c0-1.395-0.196-3.558-1.179-5.578c-1.074-2.199-2.611-3.362-2.79-3.362c-0.107,0-0.179,0.072-0.179,0.18
			c0,0.054,0,0.089,0.34,0.411c1.752,1.771,2.771,4.612,2.771,8.35c0,3.059-0.661,6.205-2.878,8.458
			c-0.232,0.214-0.232,0.25-0.232,0.304c0,0.107,0.071,0.18,0.179,0.18c0.179,0,1.788-1.216,2.843-3.488
			C375.042,26.932,375.256,24.946,375.256,23.444"/>
		<path d="M383.417,18.233h-0.426c-0.036,0.277-0.163,1.016-0.325,1.141c-0.101,0.075-1.065,0.075-1.241,0.075h-2.307
			c1.316-1.165,1.755-1.516,2.507-2.104c0.928-0.739,1.792-1.518,1.792-2.708c0-1.516-1.328-2.442-2.932-2.442
			c-1.555,0-2.607,1.09-2.607,2.242c0,0.64,0.539,0.702,0.664,0.702c0.302,0,0.664-0.213,0.664-0.664
			c0-0.226-0.088-0.664-0.739-0.664c0.39-0.89,1.241-1.166,1.83-1.166c1.253,0,1.905,0.979,1.905,1.992
			c0,1.091-0.777,1.956-1.18,2.406l-3.02,2.983c-0.125,0.112-0.125,0.137-0.125,0.488h5.164L383.417,18.233"/>
	</g>
	<path d="M289.823,65.694c0.448,0.822,0.984,1.789,0.984,3.076c0,1.18-0.68,4.166-2.342,4.166c-0.984,0-1.718-0.75-1.718-2.109
		C286.748,69.699,287.411,66.338,289.823,65.694 M289.609,65.3c-2.234,0.536-3.969,2.862-3.969,5.026
		c0,1.715,1.144,3.002,2.825,3.002c2.092,0,3.574-2.807,3.574-5.275c0-1.625-0.714-2.519-1.321-3.324
		c-0.644-0.805-1.7-2.146-1.7-2.934c0-0.394,0.357-0.821,0.984-0.821c0.536,0,0.894,0.232,1.269,0.482
		c0.358,0.214,0.716,0.447,0.984,0.447c0.447,0,0.716-0.43,0.716-0.716c0-0.394-0.287-0.447-0.932-0.591
		c-0.93-0.195-1.18-0.195-1.465-0.195c-1.396,0-2.038,0.769-2.038,1.841C288.537,63.208,289.055,64.209,289.609,65.3z"/>
	<path d="M310.891,70.736c0.25,0,0.591,0,0.591-0.357s-0.341-0.357-0.608-0.357h-10.675c-0.269,0-0.607,0-0.607,0.357
		s0.339,0.357,0.589,0.357H310.891 M310.873,67.268c0.268,0,0.608,0,0.608-0.357s-0.341-0.357-0.591-0.357H300.18
		c-0.25,0-0.589,0-0.589,0.357s0.339,0.357,0.607,0.357H310.873z"/>
	<path d="M326.18,66.303c0.07-0.25,0.07-0.287,0.07-0.412c0-0.322-0.25-0.482-0.517-0.482c-0.18,0-0.467,0.105-0.627,0.375
		c-0.036,0.089-0.178,0.644-0.25,0.964c-0.125,0.467-0.25,0.949-0.358,1.432l-0.805,3.217c-0.071,0.27-0.841,1.521-2.021,1.521
		c-0.912,0-1.109-0.787-1.109-1.449c0-0.822,0.305-1.932,0.913-3.504c0.286-0.732,0.357-0.93,0.357-1.287
		c0-0.805-0.571-1.466-1.467-1.466c-1.698,0-2.359,2.591-2.359,2.753c0,0.18,0.178,0.18,0.214,0.18c0.18,0,0.197-0.037,0.286-0.322
		c0.483-1.682,1.198-2.217,1.806-2.217c0.145,0,0.447,0,0.447,0.573c0,0.445-0.178,0.91-0.303,1.25
		c-0.716,1.896-1.037,2.914-1.037,3.756c0,1.592,1.126,2.127,2.181,2.127c0.696,0,1.305-0.305,1.806-0.805
		c-0.232,0.93-0.446,1.807-1.162,2.754c-0.466,0.607-1.144,1.127-1.967,1.127c-0.25,0-1.055-0.053-1.359-0.75
		c0.287,0,0.519,0,0.77-0.217c0.179-0.16,0.357-0.393,0.357-0.732c0-0.555-0.483-0.625-0.662-0.625c-0.41,0-1.001,0.287-1.001,1.162
		c0,0.895,0.788,1.555,1.896,1.555c1.842,0,3.684-1.625,4.184-3.648L326.18,66.303"/>
	<path d="M327.792,74.35c-0.05,0.162-0.112,0.312-0.112,0.523c0,0.59,0.501,1.066,1.19,1.066c1.253,0,1.805-1.73,1.805-1.918
		c0-0.162-0.162-0.162-0.2-0.162c-0.175,0-0.188,0.076-0.239,0.213c-0.287,1.004-0.839,1.518-1.328,1.518
		c-0.25,0-0.312-0.164-0.312-0.439c0-0.289,0.088-0.527,0.201-0.801c0.125-0.34,0.262-0.678,0.4-1.004
		c0.113-0.301,0.564-1.441,0.614-1.592c0.038-0.125,0.075-0.275,0.075-0.4c0-0.59-0.502-1.066-1.19-1.066
		c-1.241,0-1.817,1.705-1.817,1.918c0,0.162,0.176,0.162,0.213,0.162c0.176,0,0.188-0.062,0.227-0.199
		c0.324-1.078,0.876-1.529,1.34-1.529c0.201,0,0.312,0.102,0.312,0.438c0,0.289-0.074,0.477-0.387,1.254L327.792,74.35
		 M330.35,67.982c0-0.201-0.151-0.477-0.501-0.477c-0.34,0-0.702,0.326-0.702,0.689c0,0.213,0.163,0.475,0.5,0.475
		C330.011,68.67,330.35,68.32,330.35,67.982z"/>
	<path d="M348.071,69.002c0.305,0,0.627,0,0.627-0.357s-0.322-0.357-0.627-0.357h-9.673c-0.304,0-0.625,0-0.625,0.357
		s0.321,0.357,0.625,0.357H348.071"/>
	<polyline points="359.858,60.706 357.462,63.136 357.784,63.458 359.858,61.635 361.916,63.458 362.237,63.136 359.858,60.706 	"/>
	<path d="M362.88,66.303c0.07-0.25,0.07-0.287,0.07-0.412c0-0.322-0.25-0.482-0.518-0.482c-0.18,0-0.466,0.105-0.627,0.375
		c-0.035,0.089-0.178,0.644-0.25,0.964c-0.125,0.467-0.25,0.949-0.357,1.432l-0.805,3.217c-0.072,0.27-0.841,1.521-2.021,1.521
		c-0.912,0-1.109-0.787-1.109-1.449c0-0.822,0.306-1.932,0.913-3.504c0.285-0.732,0.357-0.93,0.357-1.287
		c0-0.805-0.572-1.466-1.467-1.466c-1.699,0-2.359,2.591-2.359,2.753c0,0.18,0.178,0.18,0.214,0.18c0.181,0,0.196-0.037,0.286-0.322
		c0.482-1.682,1.197-2.217,1.806-2.217c0.144,0,0.447,0,0.447,0.573c0,0.445-0.179,0.91-0.304,1.25
		c-0.715,1.896-1.037,2.914-1.037,3.756c0,1.592,1.127,2.127,2.182,2.127c0.696,0,1.305-0.305,1.807-0.805
		c-0.233,0.93-0.447,1.807-1.164,2.754c-0.465,0.607-1.143,1.127-1.967,1.127c-0.25,0-1.055-0.053-1.359-0.75
		c0.287,0,0.519,0,0.771-0.217c0.179-0.16,0.356-0.393,0.356-0.732c0-0.555-0.483-0.625-0.661-0.625
		c-0.411,0-1.001,0.287-1.001,1.162c0,0.895,0.787,1.555,1.895,1.555c1.842,0,3.685-1.625,4.185-3.648L362.88,66.303"/>
	<path d="M364.491,74.35c-0.049,0.162-0.111,0.312-0.111,0.523c0,0.59,0.501,1.066,1.189,1.066c1.254,0,1.806-1.73,1.806-1.918
		c0-0.162-0.163-0.162-0.2-0.162c-0.175,0-0.189,0.076-0.238,0.213c-0.289,1.004-0.84,1.518-1.328,1.518
		c-0.25,0-0.313-0.164-0.313-0.439c0-0.289,0.088-0.527,0.2-0.801c0.125-0.34,0.263-0.678,0.402-1.004
		c0.111-0.301,0.563-1.441,0.613-1.592c0.037-0.125,0.075-0.275,0.075-0.4c0-0.59-0.502-1.066-1.19-1.066
		c-1.24,0-1.817,1.705-1.817,1.918c0,0.162,0.175,0.162,0.213,0.162c0.176,0,0.188-0.062,0.226-0.199
		c0.325-1.078,0.877-1.529,1.342-1.529c0.199,0,0.312,0.102,0.312,0.438c0,0.289-0.075,0.477-0.388,1.254L364.491,74.35
		 M367.05,67.982c0-0.201-0.152-0.477-0.502-0.477c-0.339,0-0.701,0.326-0.701,0.689c0,0.213,0.162,0.475,0.5,0.475
		C366.711,68.67,367.05,68.32,367.05,67.982z"/>
	<g>
		<g>
			
				<line fill="none" stroke="#000000" stroke-width="1.0006" stroke-miterlimit="10" x1="288.906" y1="79.914" x2="288.906" y2="98.94"/>
			<g>
				<polygon points="285.201,96.13 288.906,97.704 292.611,96.13 288.906,104.914 				"/>
			</g>
		</g>
	</g>
</g>
<g id="Layer_10">
	<circle fill="#F9CBCC" stroke="#000000" stroke-miterlimit="10" cx="238.906" cy="179.914" r="6.915"/>
	<circle fill="#F9CBCC" stroke="#000000" stroke-miterlimit="10" cx="238.906" cy="139.914" r="6.915"/>
	<circle fill="#F9CBCC" stroke="#000000" stroke-miterlimit="10" cx="238.906" cy="99.914" r="6.915"/>
	<circle fill="#F9CBCC" stroke="#000000" stroke-miterlimit="10" cx="238.906" cy="59.915" r="6.915"/>
</g>
<g id="Layer_11" display="none">
	<circle display="inline" fill="#F9CBCC" stroke="#000000" stroke-miterlimit="10" cx="188.906" cy="119.914" r="6.915"/>
	<circle display="inline" fill="#F9CBCC" stroke="#000000" stroke-miterlimit="10" cx="188.906" cy="159.914" r="6.915"/>
	<circle display="inline" fill="#F9CBCC" stroke="#000000" stroke-miterlimit="10" cx="188.906" cy="199.914" r="6.915"/>
	<circle display="inline" fill="#F9CBCC" stroke="#000000" stroke-miterlimit="10" cx="188.906" cy="79.914" r="6.915"/>
	<circle display="inline" fill="#F9CBCC" stroke="#000000" stroke-miterlimit="10" cx="188.906" cy="39.915" r="6.915"/>
</g>
<g id="Layer_12" display="none">
	<circle display="inline" fill="#F9CBCC" stroke="#000000" stroke-miterlimit="10" cx="138.906" cy="219.914" r="6.915"/>
	<circle display="inline" fill="#F9CBCC" stroke="#000000" stroke-miterlimit="10" cx="138.906" cy="179.914" r="6.915"/>
	<circle display="inline" fill="#F9CBCC" stroke="#000000" stroke-miterlimit="10" cx="138.906" cy="139.914" r="6.915"/>
	<circle display="inline" fill="#F9CBCC" stroke="#000000" stroke-miterlimit="10" cx="138.906" cy="99.914" r="6.915"/>
	<circle display="inline" fill="#F9CBCC" stroke="#000000" stroke-miterlimit="10" cx="138.906" cy="59.915" r="6.915"/>
	<circle display="inline" fill="#F9CBCC" stroke="#000000" stroke-miterlimit="10" cx="138.906" cy="19.915" r="6.915"/>
</g>
<g id="Layer_13" display="none">
	<circle display="inline" fill="#F9CBCC" stroke="#000000" stroke-miterlimit="10" cx="88.906" cy="159.914" r="6.915"/>
	<circle display="inline" fill="#F9CBCC" stroke="#000000" stroke-miterlimit="10" cx="88.906" cy="199.914" r="6.915"/>
	<circle display="inline" fill="#F9CBCC" stroke="#000000" stroke-miterlimit="10" cx="88.906" cy="79.914" r="6.915"/>
	<circle display="inline" fill="#F9CBCC" stroke="#000000" stroke-miterlimit="10" cx="88.906" cy="39.915" r="6.915"/>
	<circle display="inline" fill="#F9CBCC" stroke="#000000" stroke-miterlimit="10" cx="88.906" cy="119.914" r="6.915"/>
</g>
</svg>
