<?xml version="1.0" encoding="utf-8"?>
<!-- Generator: Adobe Illustrator 16.0.0, SVG Export Plug-In . SVG Version: 6.00 Build 0)  -->
<!DOCTYPE svg PUBLIC "-//W3C//DTD SVG 1.1//EN" "http://www.w3.org/Graphics/SVG/1.1/DTD/svg11.dtd">
<svg version="1.1" xmlns="http://www.w3.org/2000/svg" xmlns:xlink="http://www.w3.org/1999/xlink" x="0px" y="0px" width="400px"
	 height="192.001px" viewBox="0 0 400 192.001" enable-background="new 0 0 400 192.001" xml:space="preserve">
<g id="Layer_1">
	<g>
		<g>
			
				<line fill="none" stroke="#000000" stroke-width="1.0006" stroke-miterlimit="10" x1="34.783" y1="20.397" x2="138.948" y2="70.414"/>
			<g>
				<polygon points="134.811,72.537 137.834,69.878 138.019,65.856 144.333,72.999 				"/>
			</g>
		</g>
	</g>
	<g>
		<g>
			
				<line fill="none" stroke="#000000" stroke-width="1.0006" stroke-miterlimit="10" x1="34.783" y1="178.999" x2="138.948" y2="128.983"/>
			<g>
				<polygon points="138.019,133.54 137.834,129.518 134.811,126.859 144.333,126.397 				"/>
			</g>
		</g>
	</g>
	<g>
		<defs>
			<rect id="SVGID_1_" x="9.783" y="9.397" width="17" height="12"/>
		</defs>
		<clipPath id="SVGID_2_">
			<use xlink:href="#SVGID_1_"  overflow="visible"/>
		</clipPath>
		<path clip-path="url(#SVGID_2_)" d="M15.655,12.397c0.108-0.466,0.519-2.109,1.771-2.109c0.089,0,0.519,0,0.894,0.231
			c-0.5,0.09-0.858,0.537-0.858,0.965c0,0.286,0.197,0.627,0.68,0.627c0.394,0,0.966-0.322,0.966-1.037
			c0-0.93-1.055-1.18-1.663-1.18c-1.038,0-1.664,0.946-1.878,1.359c-0.447-1.182-1.413-1.359-1.931-1.359
			c-1.859,0-2.878,2.306-2.878,2.753c0,0.18,0.178,0.18,0.214,0.18c0.142,0,0.197-0.036,0.232-0.197
			c0.608-1.896,1.788-2.342,2.396-2.342c0.341,0,0.966,0.161,0.966,1.196c0,0.555-0.303,1.754-0.966,4.257
			c-0.286,1.107-0.911,1.859-1.698,1.859c-0.108,0-0.519,0-0.894-0.233c0.447-0.089,0.841-0.464,0.841-0.965
			c0-0.483-0.394-0.625-0.663-0.625c-0.536,0-0.983,0.464-0.983,1.037c0,0.822,0.894,1.18,1.681,1.18
			c1.18,0,1.824-1.252,1.877-1.359c0.214,0.662,0.857,1.359,1.931,1.359c1.842,0,2.861-2.307,2.861-2.753
			c0-0.18-0.161-0.18-0.214-0.18c-0.161,0-0.197,0.071-0.233,0.196c-0.591,1.913-1.806,2.343-2.378,2.343
			c-0.697,0-0.982-0.572-0.982-1.18c0-0.394,0.106-0.788,0.303-1.573L15.655,12.397"/>
		<path clip-path="url(#SVGID_2_)" d="M24.182,12.527c0-0.338-0.025-0.351-0.377-0.351c-0.802,0.789-1.942,0.802-2.456,0.802v0.451
			c0.302,0,1.129,0,1.817-0.352v6.391c0,0.414,0,0.577-1.253,0.577h-0.477v0.451c0.227-0.013,1.767-0.05,2.23-0.05
			c0.39,0,1.968,0.037,2.244,0.05v-0.451h-0.477c-1.253,0-1.253-0.163-1.253-0.577V12.527"/>
	</g>
	<g>
		<defs>
			<rect id="SVGID_3_" x="9.783" y="61.796" width="17" height="12"/>
		</defs>
		<clipPath id="SVGID_4_">
			<use xlink:href="#SVGID_3_"  overflow="visible"/>
		</clipPath>
		<path clip-path="url(#SVGID_4_)" d="M15.655,64.796c0.108-0.466,0.519-2.109,1.771-2.109c0.089,0,0.519,0,0.894,0.231
			c-0.5,0.09-0.858,0.537-0.858,0.965c0,0.286,0.197,0.627,0.68,0.627c0.394,0,0.966-0.322,0.966-1.037
			c0-0.93-1.055-1.18-1.663-1.18c-1.038,0-1.664,0.946-1.878,1.359c-0.447-1.182-1.413-1.359-1.931-1.359
			c-1.859,0-2.878,2.306-2.878,2.753c0,0.18,0.178,0.18,0.214,0.18c0.142,0,0.197-0.036,0.232-0.197
			c0.608-1.896,1.788-2.342,2.396-2.342c0.341,0,0.966,0.161,0.966,1.196c0,0.555-0.303,1.754-0.966,4.257
			c-0.286,1.107-0.911,1.859-1.698,1.859c-0.108,0-0.519,0-0.894-0.233c0.447-0.089,0.841-0.464,0.841-0.965
			c0-0.483-0.394-0.625-0.663-0.625c-0.536,0-0.983,0.464-0.983,1.037c0,0.822,0.894,1.18,1.681,1.18
			c1.18,0,1.824-1.252,1.877-1.359c0.214,0.662,0.857,1.359,1.931,1.359c1.842,0,2.861-2.307,2.861-2.753
			c0-0.18-0.161-0.18-0.214-0.18c-0.161,0-0.197,0.071-0.233,0.196c-0.591,1.913-1.806,2.343-2.378,2.343
			c-0.697,0-0.982-0.572-0.982-1.18c0-0.394,0.106-0.788,0.303-1.573L15.655,64.796"/>
		<path clip-path="url(#SVGID_4_)" d="M26.312,70.614h-0.426c-0.037,0.276-0.164,1.016-0.326,1.141
			c-0.1,0.075-1.065,0.075-1.24,0.075h-2.307c1.315-1.166,1.755-1.516,2.506-2.104c0.929-0.739,1.793-1.518,1.793-2.708
			c0-1.516-1.328-2.442-2.932-2.442c-1.555,0-2.607,1.089-2.607,2.242c0,0.64,0.539,0.702,0.664,0.702
			c0.301,0,0.664-0.213,0.664-0.664c0-0.226-0.088-0.664-0.739-0.664c0.389-0.89,1.241-1.166,1.829-1.166
			c1.254,0,1.905,0.979,1.905,1.992c0,1.091-0.776,1.956-1.179,2.406l-3.02,2.982c-0.125,0.113-0.125,0.138-0.125,0.489h5.164
			L26.312,70.614"/>
	</g>
	<g>
		<defs>
			<rect id="SVGID_5_" x="9.783" y="175.796" width="23" height="12"/>
		</defs>
		<clipPath id="SVGID_6_">
			<use xlink:href="#SVGID_5_"  overflow="visible"/>
		</clipPath>
		<path clip-path="url(#SVGID_6_)" d="M15.655,178.796c0.108-0.466,0.519-2.109,1.771-2.109c0.089,0,0.519,0,0.894,0.231
			c-0.5,0.09-0.858,0.537-0.858,0.965c0,0.286,0.197,0.627,0.68,0.627c0.394,0,0.966-0.322,0.966-1.037
			c0-0.93-1.055-1.18-1.663-1.18c-1.038,0-1.664,0.946-1.878,1.359c-0.447-1.182-1.413-1.359-1.931-1.359
			c-1.859,0-2.878,2.306-2.878,2.753c0,0.18,0.178,0.18,0.214,0.18c0.142,0,0.197-0.036,0.232-0.197
			c0.608-1.896,1.788-2.342,2.396-2.342c0.341,0,0.966,0.161,0.966,1.196c0,0.555-0.303,1.754-0.966,4.257
			c-0.286,1.107-0.911,1.859-1.698,1.859c-0.108,0-0.519,0-0.894-0.233c0.447-0.089,0.841-0.464,0.841-0.965
			c0-0.483-0.394-0.625-0.663-0.625c-0.536,0-0.983,0.464-0.983,1.037c0,0.822,0.894,1.18,1.681,1.18
			c1.18,0,1.824-1.252,1.877-1.359c0.214,0.662,0.857,1.359,1.931,1.359c1.842,0,2.861-2.307,2.861-2.753
			c0-0.18-0.161-0.18-0.214-0.18c-0.161,0-0.197,0.071-0.233,0.196c-0.591,1.913-1.806,2.343-2.378,2.343
			c-0.697,0-0.982-0.572-0.982-1.18c0-0.394,0.106-0.788,0.303-1.573L15.655,178.796"/>
		<path clip-path="url(#SVGID_6_)" d="M25.422,185.88c-0.062,0.252-0.175,0.677-0.175,0.741c0,0.274,0.225,0.399,0.425,0.399
			c0.227,0,0.427-0.162,0.489-0.274c0.062-0.113,0.162-0.515,0.225-0.778c0.062-0.237,0.202-0.814,0.277-1.127
			c0.074-0.276,0.149-0.552,0.212-0.841c0.138-0.539,0.138-0.563,0.39-0.951c0.4-0.614,1.026-1.328,2.004-1.328
			c0.702,0,0.739,0.576,0.739,0.877c0,0.751-0.539,2.144-0.739,2.668c-0.137,0.352-0.188,0.465-0.188,0.677
			c0,0.666,0.552,1.078,1.191,1.078c1.253,0,1.805-1.729,1.805-1.917c0-0.162-0.164-0.162-0.202-0.162
			c-0.175,0-0.188,0.074-0.237,0.212c-0.289,1.003-0.826,1.518-1.328,1.518c-0.264,0-0.314-0.177-0.314-0.439
			c0-0.289,0.062-0.451,0.289-1.016c0.15-0.388,0.664-1.717,0.664-2.419c0-0.199,0-0.727-0.464-1.089
			c-0.212-0.164-0.576-0.339-1.165-0.339c-1.129,0-1.817,0.739-2.217,1.266c-0.103-1.065-0.991-1.266-1.631-1.266
			c-1.04,0-1.742,0.639-2.118,1.141c-0.088-0.865-0.827-1.141-1.341-1.141c-0.539,0-0.827,0.389-0.989,0.677
			c-0.276,0.464-0.451,1.178-0.451,1.24c0,0.163,0.175,0.163,0.212,0.163c0.176,0,0.189-0.038,0.276-0.375
			c0.188-0.739,0.425-1.354,0.914-1.354c0.327,0,0.415,0.275,0.415,0.614c0,0.237-0.113,0.701-0.2,1.039
			c-0.089,0.339-0.214,0.853-0.277,1.128l-0.401,1.604c-0.05,0.163-0.125,0.476-0.125,0.515c0,0.274,0.227,0.399,0.426,0.399
			c0.225,0,0.427-0.162,0.489-0.274c0.062-0.113,0.162-0.515,0.225-0.778c0.062-0.237,0.201-0.814,0.277-1.127
			c0.074-0.276,0.149-0.552,0.212-0.841c0.138-0.514,0.163-0.613,0.526-1.128c0.351-0.5,0.939-1.151,1.88-1.151
			c0.727,0,0.739,0.639,0.739,0.877c0,0.313-0.037,0.477-0.213,1.178L25.422,185.88"/>
	</g>
	<g>
		<g>
			
				<line fill="none" stroke="#000000" stroke-width="1.0006" stroke-miterlimit="10" x1="34.783" y1="68.397" x2="133.417" y2="82.173"/>
			<g>
				<polygon points="130.121,85.454 132.193,82.002 131.146,78.114 139.333,82.999 				"/>
			</g>
		</g>
	</g>
	<circle fill="#9EC9ED" stroke="#000000" stroke-miterlimit="10" cx="84.905" cy="155.598" r="14.405"/>
	<circle fill="#9EC9ED" stroke="#000000" stroke-miterlimit="10" cx="84.905" cy="75.598" r="14.405"/>
	<circle fill="#9EC9ED" stroke="#000000" stroke-miterlimit="10" cx="84.905" cy="43.598" r="14.405"/>
	<g>
		<defs>
			<rect id="SVGID_7_" x="71.058" y="150.598" width="26" height="12"/>
		</defs>
		<clipPath id="SVGID_8_">
			<use xlink:href="#SVGID_7_"  overflow="visible"/>
		</clipPath>
		<path clip-path="url(#SVGID_8_)" d="M79.719,152.937c0.089-0.394,0.269-1.057,0.269-1.162c0-0.322-0.251-0.483-0.519-0.483
			c-0.215,0-0.537,0.143-0.662,0.5c-0.053,0.125-0.894,3.541-1.019,4.007c-0.125,0.535-0.161,0.857-0.161,1.18
			c0,0.196,0,0.232,0.017,0.321c-0.411,0.947-0.947,1.502-1.644,1.502c-1.431,0-1.431-1.323-1.431-1.627
			c0-0.571,0.089-1.271,0.93-3.469c0.197-0.537,0.305-0.787,0.305-1.146c0-0.805-0.59-1.465-1.467-1.465
			c-1.698,0-2.359,2.592-2.359,2.753c0,0.18,0.178,0.18,0.214,0.18c0.18,0,0.197-0.036,0.286-0.322
			c0.483-1.664,1.182-2.217,1.807-2.217c0.161,0,0.447,0.017,0.447,0.589c0,0.447-0.197,0.948-0.322,1.252
			c-0.786,2.11-1.002,2.933-1.002,3.612c0,1.626,1.199,2.253,2.539,2.253c0.305,0,1.146,0,1.859-1.252
			c0.466,1.145,1.7,1.252,2.236,1.252c1.34,0,2.128-1.127,2.592-2.2c0.608-1.394,1.182-3.79,1.182-4.648
			c0-0.982-0.483-1.251-0.788-1.251c-0.447,0-0.894,0.464-0.894,0.857c0,0.232,0.108,0.341,0.269,0.482
			c0.195,0.197,0.642,0.663,0.642,1.521c0,0.608-0.517,2.359-0.983,3.272c-0.464,0.948-1.09,1.573-1.967,1.573
			c-0.84,0-1.323-0.536-1.323-1.555c0-0.502,0.126-1.057,0.197-1.307L79.719,152.937"/>
		<path clip-path="url(#SVGID_8_)" d="M89.797,160.682c-0.062,0.252-0.175,0.677-0.175,0.741c0,0.274,0.225,0.399,0.425,0.399
			c0.227,0,0.427-0.162,0.489-0.274c0.062-0.113,0.163-0.515,0.225-0.778c0.062-0.237,0.202-0.814,0.276-1.127
			c0.075-0.276,0.15-0.552,0.212-0.841c0.138-0.539,0.138-0.563,0.389-0.951c0.4-0.614,1.027-1.328,2.005-1.328
			c0.702,0,0.739,0.576,0.739,0.877c0,0.751-0.539,2.144-0.739,2.668c-0.138,0.352-0.188,0.465-0.188,0.677
			c0,0.666,0.551,1.078,1.19,1.078c1.253,0,1.805-1.729,1.805-1.917c0-0.162-0.164-0.162-0.202-0.162
			c-0.175,0-0.188,0.074-0.237,0.212c-0.289,1.003-0.827,1.518-1.328,1.518c-0.264,0-0.314-0.177-0.314-0.439
			c0-0.289,0.062-0.451,0.289-1.016c0.15-0.388,0.664-1.717,0.664-2.419c0-0.199,0-0.727-0.464-1.089
			c-0.212-0.164-0.576-0.339-1.166-0.339c-1.128,0-1.817,0.739-2.217,1.266c-0.102-1.065-0.99-1.266-1.629-1.266
			c-1.041,0-1.742,0.639-2.119,1.141c-0.088-0.865-0.827-1.141-1.341-1.141c-0.539,0-0.827,0.389-0.989,0.677
			c-0.276,0.464-0.451,1.178-0.451,1.24c0,0.163,0.175,0.163,0.212,0.163c0.176,0,0.189-0.038,0.276-0.375
			c0.188-0.739,0.425-1.354,0.914-1.354c0.327,0,0.414,0.275,0.414,0.614c0,0.237-0.112,0.701-0.2,1.039
			c-0.089,0.339-0.214,0.853-0.277,1.128l-0.401,1.604c-0.05,0.163-0.125,0.476-0.125,0.515c0,0.274,0.227,0.399,0.426,0.399
			c0.225,0,0.427-0.162,0.489-0.274c0.062-0.113,0.163-0.515,0.225-0.778c0.062-0.237,0.2-0.814,0.276-1.127
			c0.075-0.276,0.15-0.552,0.212-0.841c0.138-0.514,0.163-0.613,0.527-1.128c0.35-0.5,0.939-1.151,1.879-1.151
			c0.727,0,0.739,0.639,0.739,0.877c0,0.313-0.038,0.477-0.212,1.178L89.797,160.682"/>
	</g>
	<g>
		<defs>
			<rect id="SVGID_9_" x="75.477" y="70.598" width="19" height="12"/>
		</defs>
		<clipPath id="SVGID_10_">
			<use xlink:href="#SVGID_9_"  overflow="visible"/>
		</clipPath>
		<path clip-path="url(#SVGID_10_)" d="M83.338,72.937c0.089-0.394,0.269-1.057,0.269-1.162c0-0.322-0.252-0.483-0.519-0.483
			c-0.215,0-0.538,0.143-0.663,0.5c-0.053,0.125-0.894,3.541-1.019,4.007c-0.125,0.535-0.161,0.857-0.161,1.18
			c0,0.196,0,0.232,0.018,0.321c-0.411,0.947-0.947,1.502-1.644,1.502c-1.431,0-1.431-1.323-1.431-1.627
			c0-0.571,0.089-1.271,0.93-3.469c0.197-0.537,0.305-0.787,0.305-1.146c0-0.805-0.591-1.465-1.467-1.465
			c-1.698,0-2.359,2.592-2.359,2.753c0,0.18,0.178,0.18,0.214,0.18c0.18,0,0.197-0.036,0.286-0.322
			c0.483-1.664,1.181-2.217,1.806-2.217c0.161,0,0.447,0.017,0.447,0.589c0,0.447-0.197,0.948-0.322,1.252
			c-0.786,2.11-1.001,2.933-1.001,3.612c0,1.626,1.199,2.253,2.539,2.253c0.305,0,1.146,0,1.859-1.252
			c0.466,1.145,1.7,1.252,2.236,1.252c1.341,0,2.128-1.127,2.592-2.2c0.608-1.394,1.181-3.79,1.181-4.648
			c0-0.982-0.483-1.251-0.787-1.251c-0.447,0-0.894,0.464-0.894,0.857c0,0.232,0.108,0.341,0.269,0.482
			c0.195,0.197,0.642,0.663,0.642,1.521c0,0.608-0.517,2.359-0.983,3.272c-0.464,0.948-1.091,1.573-1.967,1.573
			c-0.84,0-1.323-0.536-1.323-1.555c0-0.502,0.126-1.057,0.197-1.307L83.338,72.937"/>
		<path clip-path="url(#SVGID_10_)" d="M94.305,79.417H93.88c-0.037,0.276-0.164,1.016-0.326,1.141
			c-0.1,0.075-1.066,0.075-1.241,0.075h-2.306c1.315-1.166,1.754-1.516,2.506-2.104c0.928-0.739,1.792-1.518,1.792-2.708
			c0-1.516-1.328-2.442-2.931-2.442c-1.555,0-2.608,1.089-2.608,2.242c0,0.64,0.539,0.702,0.664,0.702
			c0.302,0,0.664-0.213,0.664-0.664c0-0.226-0.087-0.664-0.739-0.664c0.389-0.89,1.241-1.166,1.83-1.166
			c1.253,0,1.905,0.979,1.905,1.992c0,1.091-0.776,1.956-1.178,2.406l-3.021,2.982c-0.125,0.113-0.125,0.138-0.125,0.489h5.164
			L94.305,79.417"/>
	</g>
	<g>
		<defs>
			<rect id="SVGID_11_" x="75.638" y="38.796" width="19" height="12"/>
		</defs>
		<clipPath id="SVGID_12_">
			<use xlink:href="#SVGID_11_"  overflow="visible"/>
		</clipPath>
		<path clip-path="url(#SVGID_12_)" d="M83.499,41.135c0.089-0.394,0.269-1.057,0.269-1.162c0-0.322-0.252-0.483-0.519-0.483
			c-0.215,0-0.538,0.143-0.663,0.5c-0.053,0.125-0.894,3.541-1.019,4.007c-0.125,0.535-0.161,0.857-0.161,1.18
			c0,0.196,0,0.232,0.018,0.321c-0.411,0.947-0.947,1.502-1.644,1.502c-1.431,0-1.431-1.323-1.431-1.627
			c0-0.571,0.089-1.271,0.93-3.469c0.197-0.537,0.305-0.787,0.305-1.146c0-0.805-0.591-1.465-1.467-1.465
			c-1.698,0-2.359,2.592-2.359,2.753c0,0.18,0.178,0.18,0.214,0.18c0.18,0,0.197-0.036,0.286-0.322
			c0.483-1.664,1.181-2.217,1.806-2.217c0.161,0,0.447,0.017,0.447,0.589c0,0.447-0.197,0.948-0.322,1.252
			c-0.786,2.11-1.001,2.933-1.001,3.612c0,1.626,1.199,2.253,2.539,2.253c0.305,0,1.146,0,1.859-1.252
			c0.466,1.145,1.7,1.252,2.236,1.252c1.341,0,2.128-1.127,2.592-2.2c0.608-1.394,1.181-3.79,1.181-4.648
			c0-0.982-0.483-1.251-0.787-1.251c-0.447,0-0.894,0.464-0.894,0.857c0,0.232,0.108,0.341,0.269,0.482
			c0.195,0.197,0.642,0.663,0.642,1.521c0,0.608-0.517,2.359-0.983,3.272c-0.464,0.948-1.091,1.573-1.967,1.573
			c-0.84,0-1.323-0.536-1.323-1.555c0-0.502,0.126-1.057,0.197-1.307L83.499,41.135"/>
		<path clip-path="url(#SVGID_12_)" d="M92.336,41.926c0-0.338-0.025-0.351-0.376-0.351c-0.802,0.789-1.942,0.802-2.456,0.802v0.451
			c0.301,0,1.128,0,1.817-0.352v6.391c0,0.414,0,0.577-1.253,0.577h-0.477v0.451c0.227-0.013,1.767-0.05,2.231-0.05
			c0.389,0,1.967,0.037,2.244,0.05v-0.451H93.59c-1.253,0-1.253-0.163-1.253-0.577V41.926"/>
	</g>
	<circle fill="none" cx="83.247" cy="106.257" r="1.677"/>
	<circle cx="83.247" cy="106.257" r="1.677"/>
	<circle cx="83.247" cy="116.257" r="1.677"/>
	<circle cx="83.247" cy="126.257" r="1.677"/>
</g>
<g id="Layer_5" display="none">
	
		<circle display="inline" fill="none" stroke="#000000" stroke-width="1.0006" stroke-miterlimit="10" cx="213.484" cy="98.934" r="64.154"/>
</g>
<g id="Layer_6">
	<circle fill="#FCF8CE" stroke="#000000" stroke-miterlimit="10" cx="213.484" cy="98.935" r="70.569"/>
</g>
<g id="Layer_2" display="none">
	<g display="inline">
		<g>
			
				<line fill="none" stroke="#E30613" stroke-width="1.0006" stroke-miterlimit="10" x1="277.783" y1="98.397" x2="381.359" y2="98.397"/>
			<g>
				<polygon fill="#E30613" points="378.549,102.103 380.123,98.397 378.549,94.692 387.333,98.397 				"/>
			</g>
		</g>
	</g>
	<g display="inline">
		<g>
			
				<line fill="none" stroke="#E30613" stroke-width="1.0006" stroke-miterlimit="10" x1="277.783" y1="98.397" x2="381.359" y2="98.397"/>
			<g>
				<polygon fill="#E30613" points="378.549,102.103 380.123,98.397 378.549,94.692 387.333,98.397 				"/>
			</g>
		</g>
	</g>
	<g display="inline">
		<path fill="#E30613" d="M157.375,103.57c-0.876,0-1.592-0.644-1.592-1.931c0-0.536,0.215-2.002,0.84-3.059
			c0.751-1.232,1.824-1.482,2.433-1.482c1.501,0,1.644,1.18,1.644,1.734c0,0.839-0.358,2.307-0.966,3.217
			C159.037,103.106,158.072,103.57,157.375,103.57 M163.257,97.099c0.233,0,0.877,0,0.877-0.609c0-0.429-0.377-0.429-0.699-0.429
			h-4.077c-2.7,0-4.684,2.95-4.684,5.079c0,1.573,1.055,2.824,2.681,2.824c2.111,0,4.489-2.164,4.489-4.917
			c0-0.305,0-1.162-0.555-1.948H163.257z"/>
		<path fill="#E30613" d="M170.814,108.058c0-0.053,0-0.089-0.305-0.392c-2.234-2.254-2.807-5.633-2.807-8.369
			c0-3.111,0.68-6.222,2.878-8.458c0.233-0.214,0.233-0.25,0.233-0.303c0-0.125-0.072-0.18-0.18-0.18
			c-0.178,0-1.788,1.216-2.842,3.487c-0.913,1.967-1.126,3.951-1.126,5.453c0,1.396,0.197,3.558,1.18,5.58
			c1.073,2.198,2.611,3.36,2.789,3.36C170.742,108.237,170.814,108.185,170.814,108.058"/>
		<path d="M183.834,80.352c-0.062,0.252-0.175,0.677-0.175,0.741c0,0.274,0.225,0.399,0.425,0.399c0.227,0,0.427-0.162,0.489-0.274
			c0.062-0.113,0.163-0.515,0.225-0.778c0.062-0.237,0.201-0.814,0.276-1.127c0.075-0.276,0.15-0.552,0.212-0.841
			c0.138-0.539,0.138-0.563,0.389-0.951c0.4-0.614,1.026-1.328,2.004-1.328c0.702,0,0.739,0.576,0.739,0.877
			c0,0.751-0.539,2.144-0.739,2.668c-0.137,0.352-0.188,0.465-0.188,0.677c0,0.666,0.552,1.078,1.191,1.078
			c1.253,0,1.805-1.729,1.805-1.917c0-0.163-0.164-0.163-0.202-0.163c-0.175,0-0.188,0.075-0.237,0.213
			c-0.289,1.003-0.827,1.518-1.328,1.518c-0.264,0-0.314-0.177-0.314-0.439c0-0.289,0.062-0.451,0.289-1.016
			c0.15-0.388,0.664-1.717,0.664-2.419c0-0.199,0-0.727-0.464-1.089c-0.212-0.164-0.577-0.339-1.166-0.339
			c-1.128,0-1.817,0.739-2.217,1.266c-0.102-1.065-0.991-1.266-1.629-1.266c-1.041,0-1.742,0.639-2.119,1.141
			c-0.087-0.866-0.826-1.141-1.34-1.141c-0.539,0-0.827,0.389-0.989,0.677c-0.276,0.464-0.452,1.178-0.452,1.24
			c0,0.162,0.175,0.162,0.213,0.162c0.176,0,0.189-0.037,0.276-0.375c0.188-0.738,0.425-1.353,0.914-1.353
			c0.327,0,0.414,0.275,0.414,0.614c0,0.237-0.112,0.701-0.2,1.039c-0.089,0.339-0.214,0.853-0.276,1.128l-0.401,1.604
			c-0.05,0.162-0.125,0.475-0.125,0.515c0,0.274,0.227,0.399,0.426,0.399c0.225,0,0.427-0.162,0.489-0.274
			c0.062-0.113,0.163-0.515,0.225-0.778c0.062-0.237,0.2-0.814,0.276-1.127c0.075-0.276,0.15-0.552,0.212-0.841
			c0.138-0.514,0.163-0.614,0.527-1.128c0.35-0.5,0.939-1.151,1.879-1.151c0.727,0,0.739,0.639,0.739,0.877
			c0,0.313-0.038,0.476-0.212,1.178L183.834,80.352"/>
		<path d="M194.433,111.8l2.163-5.722h-0.447c-0.697,1.859-2.592,3.075-4.648,3.612c-0.375,0.09-2.128,0.554-5.561,0.554h-10.783
			l9.102-10.674c0.125-0.144,0.161-0.197,0.161-0.286c0-0.036,0-0.09-0.125-0.269l-8.333-11.391h9.799
			c2.396,0,4.023,0.252,4.184,0.286c0.966,0.144,2.522,0.446,3.935,1.342c0.447,0.286,1.663,1.091,2.27,2.539h0.447l-2.163-5.024
			h-21.136c-0.411,0-0.428,0.017-0.482,0.125c-0.018,0.053-0.018,0.394-0.018,0.59l9.459,12.945l-9.263,10.854
			c-0.179,0.216-0.179,0.305-0.179,0.322c0,0.196,0.161,0.196,0.482,0.196H194.433"/>
		<path d="M174.698,123.502c-0.05,0.162-0.113,0.312-0.113,0.524c0,0.59,0.502,1.066,1.191,1.066c1.253,0,1.805-1.73,1.805-1.918
			c0-0.162-0.163-0.162-0.2-0.162c-0.175,0-0.189,0.075-0.239,0.213c-0.288,1.003-0.839,1.517-1.328,1.517
			c-0.25,0-0.312-0.164-0.312-0.438c0-0.289,0.087-0.527,0.2-0.802c0.125-0.339,0.263-0.677,0.402-1.003
			c0.112-0.301,0.564-1.441,0.614-1.593c0.038-0.125,0.075-0.274,0.075-0.399c0-0.59-0.501-1.066-1.191-1.066
			c-1.24,0-1.817,1.705-1.817,1.918c0,0.162,0.175,0.162,0.212,0.162c0.177,0,0.189-0.062,0.227-0.2
			c0.325-1.078,0.876-1.528,1.341-1.528c0.2,0,0.312,0.101,0.312,0.438c0,0.289-0.075,0.477-0.388,1.254L174.698,123.502
			 M177.256,117.135c0-0.2-0.151-0.476-0.501-0.476c-0.339,0-0.702,0.325-0.702,0.689c0,0.213,0.163,0.475,0.5,0.475
			C176.917,117.823,177.256,117.474,177.256,117.135z"/>
		<path d="M187.933,123.515c0.163,0,0.462,0,0.462-0.302c0-0.312-0.288-0.312-0.475-0.312h-8.272c-0.188,0-0.477,0-0.477,0.312
			c0,0.302,0.302,0.302,0.464,0.302H187.933 M187.92,120.757c0.188,0,0.475,0,0.475-0.312c0-0.302-0.3-0.302-0.462-0.302h-8.297
			c-0.163,0-0.464,0-0.464,0.302c0,0.312,0.289,0.312,0.477,0.312H187.92z"/>
		<path d="M193.493,116.997c0-0.338-0.025-0.35-0.376-0.35c-0.801,0.789-1.942,0.801-2.456,0.801v0.452c0.302,0,1.128,0,1.817-0.352
			v6.391c0,0.414,0,0.576-1.253,0.576h-0.477v0.452c0.227-0.013,1.767-0.051,2.231-0.051c0.389,0,1.967,0.038,2.244,0.051v-0.452
			h-0.477c-1.253,0-1.253-0.162-1.253-0.576V116.997"/>
		<path d="M206.667,98.367c0.108-0.466,0.519-2.109,1.77-2.109c0.09,0,0.52,0,0.895,0.231c-0.5,0.091-0.857,0.537-0.857,0.966
			c0,0.285,0.196,0.626,0.68,0.626c0.393,0,0.965-0.321,0.965-1.037c0-0.93-1.055-1.18-1.662-1.18c-1.037,0-1.664,0.946-1.878,1.359
			c-0.447-1.182-1.412-1.359-1.931-1.359c-1.859,0-2.878,2.306-2.878,2.753c0,0.18,0.178,0.18,0.214,0.18
			c0.142,0,0.197-0.036,0.233-0.197c0.608-1.895,1.788-2.342,2.396-2.342c0.34,0,0.965,0.161,0.965,1.197
			c0,0.555-0.303,1.753-0.965,4.256c-0.286,1.108-0.911,1.859-1.699,1.859c-0.108,0-0.519,0-0.894-0.232
			c0.447-0.09,0.84-0.465,0.84-0.966c0-0.482-0.394-0.625-0.662-0.625c-0.536,0-0.983,0.464-0.983,1.037
			c0,0.822,0.894,1.18,1.681,1.18c1.18,0,1.823-1.251,1.876-1.359c0.214,0.663,0.858,1.359,1.931,1.359
			c1.842,0,2.861-2.306,2.861-2.753c0-0.18-0.16-0.18-0.214-0.18c-0.161,0-0.196,0.072-0.233,0.197
			c-0.59,1.912-1.806,2.342-2.377,2.342c-0.697,0-0.983-0.572-0.983-1.18c0-0.394,0.106-0.787,0.303-1.573L206.667,98.367"/>
		<path d="M212.498,105.002c-0.05,0.162-0.112,0.312-0.112,0.524c0,0.589,0.502,1.066,1.19,1.066c1.253,0,1.805-1.73,1.805-1.918
			c0-0.162-0.163-0.162-0.2-0.162c-0.175,0-0.189,0.075-0.238,0.212c-0.288,1.004-0.84,1.518-1.328,1.518
			c-0.25,0-0.312-0.164-0.312-0.439c0-0.288,0.087-0.526,0.199-0.801c0.125-0.34,0.263-0.677,0.402-1.004
			c0.111-0.3,0.563-1.44,0.613-1.592c0.037-0.125,0.075-0.274,0.075-0.399c0-0.59-0.501-1.066-1.19-1.066
			c-1.24,0-1.817,1.705-1.817,1.917c0,0.163,0.175,0.163,0.212,0.163c0.178,0,0.189-0.062,0.227-0.2
			c0.326-1.078,0.877-1.528,1.342-1.528c0.199,0,0.312,0.101,0.312,0.438c0,0.289-0.076,0.477-0.389,1.253L212.498,105.002
			 M215.056,98.635c0-0.2-0.151-0.476-0.502-0.476c-0.338,0-0.701,0.325-0.701,0.689c0,0.212,0.162,0.475,0.5,0.475
			C214.717,99.323,215.056,98.974,215.056,98.635z"/>
		<path d="M225.256,97.706c0.089-0.394,0.269-1.056,0.269-1.162c0-0.322-0.252-0.483-0.519-0.483c-0.216,0-0.538,0.143-0.663,0.5
			c-0.053,0.125-0.893,3.541-1.018,4.007c-0.125,0.536-0.162,0.857-0.162,1.18c0,0.197,0,0.232,0.018,0.322
			c-0.41,0.946-0.947,1.501-1.644,1.501c-1.431,0-1.431-1.323-1.431-1.626c0-0.572,0.088-1.271,0.93-3.47
			c0.196-0.537,0.305-0.787,0.305-1.145c0-0.805-0.592-1.466-1.468-1.466c-1.698,0-2.359,2.592-2.359,2.753
			c0,0.18,0.179,0.18,0.214,0.18c0.18,0,0.197-0.036,0.286-0.322c0.483-1.664,1.181-2.217,1.806-2.217
			c0.162,0,0.447,0.018,0.447,0.589c0,0.447-0.197,0.948-0.322,1.252c-0.785,2.111-1.001,2.933-1.001,3.612
			c0,1.627,1.198,2.253,2.539,2.253c0.305,0,1.146,0,1.859-1.251c0.466,1.144,1.7,1.251,2.235,1.251
			c1.342,0,2.129-1.126,2.593-2.199c0.608-1.395,1.181-3.791,1.181-4.649c0-0.982-0.482-1.251-0.787-1.251
			c-0.447,0-0.894,0.464-0.894,0.857c0,0.233,0.108,0.341,0.269,0.483c0.195,0.196,0.643,0.662,0.643,1.52
			c0,0.608-0.518,2.36-0.982,3.272c-0.465,0.948-1.092,1.573-1.968,1.573c-0.841,0-1.323-0.536-1.323-1.555
			c0-0.501,0.127-1.056,0.197-1.306L225.256,97.706"/>
		<path d="M231.298,105.002c-0.05,0.162-0.112,0.312-0.112,0.524c0,0.589,0.501,1.066,1.19,1.066c1.254,0,1.805-1.73,1.805-1.918
			c0-0.162-0.162-0.162-0.199-0.162c-0.176,0-0.189,0.075-0.24,0.212c-0.287,1.004-0.838,1.518-1.328,1.518
			c-0.25,0-0.312-0.164-0.312-0.439c0-0.288,0.088-0.526,0.201-0.801c0.125-0.34,0.262-0.677,0.4-1.004
			c0.113-0.3,0.564-1.44,0.615-1.592c0.037-0.125,0.074-0.274,0.074-0.399c0-0.59-0.502-1.066-1.19-1.066
			c-1.241,0-1.817,1.705-1.817,1.917c0,0.163,0.176,0.163,0.213,0.163c0.176,0,0.189-0.062,0.227-0.2
			c0.324-1.078,0.877-1.528,1.34-1.528c0.201,0,0.312,0.101,0.312,0.438c0,0.289-0.074,0.477-0.387,1.253L231.298,105.002
			 M233.856,98.635c0-0.2-0.152-0.476-0.502-0.476c-0.34,0-0.701,0.325-0.701,0.689c0,0.212,0.162,0.475,0.5,0.475
			C233.517,99.323,233.856,98.974,233.856,98.635z"/>
		<path d="M247.107,99.655h4.989c0.25,0,0.59,0,0.59-0.358c0-0.357-0.34-0.357-0.59-0.357h-4.989v-5.007c0-0.25,0-0.59-0.356-0.59
			c-0.357,0-0.357,0.34-0.357,0.59v5.007h-5.008c-0.25,0-0.59,0-0.59,0.357c0,0.358,0.34,0.358,0.59,0.358h5.008v5.006
			c0,0.25,0,0.591,0.357,0.591c0.356,0,0.356-0.341,0.356-0.591V99.655"/>
		<path d="M260.287,98.314c0.108-0.395,0.108-0.43,0.269-0.627c0.877-1.162,1.682-1.43,2.146-1.43c0.644,0,1.127,0.536,1.127,1.68
			c0,1.057-0.589,3.112-0.911,3.791c-0.591,1.198-1.414,1.842-2.111,1.842c-0.607,0-1.197-0.482-1.197-1.806
			c0-0.34,0-0.68,0.287-1.805L260.287,98.314 M261.968,91.555c0-0.018,0-0.197-0.232-0.197c-0.41,0-1.715,0.145-2.182,0.18
			c-0.142,0.018-0.339,0.035-0.339,0.356c0,0.216,0.161,0.216,0.429,0.216c0.859,0,0.896,0.125,0.896,0.303
			c0,0.125-0.161,0.733-0.252,1.11l-1.466,5.827c-0.213,0.896-0.285,1.182-0.285,1.807c0,1.698,0.947,2.808,2.27,2.808
			c2.111,0,4.31-2.664,4.31-5.239c0-1.626-0.947-2.86-2.378-2.86c-0.822,0-1.555,0.519-2.092,1.073L261.968,91.555z"/>
		<path fill="#E30613" d="M270.562,99.297c0-1.396-0.196-3.558-1.179-5.578c-1.073-2.2-2.61-3.362-2.79-3.362
			c-0.107,0-0.179,0.071-0.179,0.18c0,0.053,0,0.089,0.34,0.411c1.752,1.771,2.771,4.612,2.771,8.35c0,3.058-0.66,6.205-2.877,8.458
			c-0.233,0.214-0.233,0.25-0.233,0.303c0,0.108,0.071,0.18,0.179,0.18c0.18,0,1.788-1.215,2.844-3.487
			C270.349,102.784,270.562,100.799,270.562,99.297"/>
		<rect x="154.495" y="75.667" fill="none" width="117" height="50"/>
	</g>
</g>
<g id="Layer_4">
	<g>
		<g>
			
				<line fill="none" stroke="#BE1622" stroke-width="1.0006" stroke-miterlimit="10" x1="284.45" y1="98.397" x2="388.026" y2="98.397"/>
			<g>
				<polygon fill="#BE1622" points="385.216,102.103 386.79,98.397 385.216,94.692 394,98.397 				"/>
			</g>
		</g>
	</g>
	<g>
		<path fill="#BE1622" d="M150.651,104.076c-0.877,0-1.592-0.644-1.592-1.931c0-0.536,0.215-2.002,0.84-3.059
			c0.752-1.232,1.824-1.482,2.434-1.482c1.502,0,1.644,1.18,1.644,1.734c0,0.839-0.358,2.307-0.966,3.217
			C152.313,103.612,151.349,104.076,150.651,104.076 M156.534,97.604c0.232,0,0.877,0,0.877-0.609c0-0.428-0.377-0.428-0.699-0.428
			h-4.076c-2.699,0-4.684,2.949-4.684,5.078c0,1.573,1.055,2.824,2.681,2.824c2.11,0,4.489-2.164,4.489-4.917
			c0-0.305,0-1.162-0.555-1.948H156.534z"/>
		<path fill="#BE1622" d="M162.859,99.821c0.394,0,0.5,0,0.5-0.25c0.036-12.534,1.484-22.94,7.742-31.684
			c0.127-0.161,0.127-0.197,0.127-0.233c0-0.178-0.127-0.178-0.413-0.178c-0.285,0-0.321,0-0.357,0.036
			c-0.07,0.053-2.342,2.664-4.146,6.258c-2.361,4.72-3.846,10.137-4.507,16.646c-0.055,0.555-0.43,4.273-0.43,8.511v0.697
			c0.019,0.196,0.125,0.196,0.501,0.196H162.859"/>
		<path fill="#BE1622" d="M161.876,99.579c-0.376,0-0.482,0-0.501,0.197v0.697c0,10.925,1.948,17.326,2.503,19.133
			c1.216,3.969,3.201,8.152,6.188,11.836c0.268,0.321,0.34,0.412,0.411,0.446c0.036,0.019,0.054,0.036,0.339,0.036
			c0.286,0,0.413,0,0.413-0.178c0-0.036,0-0.072-0.108-0.233c-5.954-8.261-7.742-18.201-7.761-31.685c0-0.25-0.106-0.25-0.5-0.25
			H161.876"/>
		<path d="M183.812,80.757c-0.062,0.251-0.176,0.677-0.176,0.74c0,0.275,0.226,0.4,0.426,0.4c0.227,0,0.426-0.163,0.488-0.275
			s0.162-0.514,0.225-0.778c0.062-0.237,0.202-0.813,0.277-1.126c0.074-0.276,0.15-0.552,0.213-0.841
			c0.137-0.539,0.137-0.564,0.389-0.951c0.4-0.614,1.026-1.328,2.004-1.328c0.702,0,0.74,0.576,0.74,0.876
			c0,0.752-0.539,2.144-0.74,2.669c-0.137,0.352-0.188,0.464-0.188,0.677c0,0.665,0.553,1.078,1.191,1.078
			c1.253,0,1.805-1.729,1.805-1.917c0-0.163-0.164-0.163-0.201-0.163c-0.176,0-0.188,0.075-0.238,0.213
			c-0.289,1.003-0.826,1.517-1.328,1.517c-0.264,0-0.314-0.176-0.314-0.438c0-0.289,0.062-0.452,0.29-1.016
			c0.149-0.388,0.663-1.718,0.663-2.419c0-0.2,0-0.727-0.463-1.089c-0.213-0.164-0.577-0.339-1.166-0.339
			c-1.129,0-1.817,0.738-2.217,1.266c-0.102-1.066-0.991-1.266-1.63-1.266c-1.041,0-1.742,0.639-2.119,1.141
			c-0.087-0.866-0.826-1.141-1.341-1.141c-0.539,0-0.826,0.389-0.988,0.676c-0.277,0.465-0.452,1.179-0.452,1.241
			c0,0.162,0.175,0.162,0.213,0.162c0.177,0,0.188-0.037,0.276-0.375c0.188-0.739,0.425-1.353,0.914-1.353
			c0.326,0,0.414,0.274,0.414,0.613c0,0.238-0.112,0.702-0.2,1.039c-0.089,0.34-0.214,0.854-0.276,1.129l-0.402,1.604
			c-0.049,0.162-0.125,0.475-0.125,0.514c0,0.275,0.227,0.4,0.428,0.4c0.225,0,0.426-0.163,0.488-0.275s0.163-0.514,0.226-0.778
			c0.062-0.237,0.2-0.813,0.276-1.126c0.074-0.276,0.15-0.552,0.213-0.841c0.137-0.514,0.162-0.614,0.526-1.128
			c0.35-0.5,0.938-1.151,1.88-1.151c0.727,0,0.738,0.639,0.738,0.876c0,0.314-0.037,0.477-0.213,1.179L183.812,80.757"/>
		<path d="M194.509,112.206l2.163-5.722h-0.446c-0.697,1.859-2.593,3.075-4.648,3.612c-0.375,0.089-2.129,0.553-5.562,0.553h-10.782
			l9.102-10.673c0.125-0.144,0.16-0.197,0.16-0.286c0-0.036,0-0.091-0.125-0.269l-8.332-11.391h9.798
			c2.397,0,4.023,0.251,4.185,0.286c0.966,0.144,2.521,0.446,3.934,1.342c0.447,0.286,1.663,1.091,2.271,2.539h0.446l-2.163-5.025
			h-21.135c-0.412,0-0.429,0.018-0.483,0.125c-0.017,0.054-0.017,0.395-0.017,0.591l9.459,12.945l-9.263,10.854
			c-0.18,0.216-0.18,0.305-0.18,0.321c0,0.197,0.161,0.197,0.483,0.197H194.509"/>
		<path d="M175.218,125.987c-0.215,0.864-0.879,1.592-1.617,1.592c-0.163,0-0.314-0.024-0.452-0.076
			c0.327-0.15,0.427-0.45,0.427-0.639c0-0.301-0.238-0.463-0.489-0.463c-0.388,0-0.714,0.338-0.714,0.739
			c0,0.477,0.489,0.789,1.24,0.789c0.752,0,2.219-0.452,2.606-1.979l1.128-4.486c0.037-0.139,0.062-0.252,0.062-0.439
			c0-0.688-0.589-1.178-1.34-1.178c-1.391,0-2.194,1.742-2.194,1.917c0,0.163,0.177,0.163,0.214,0.163
			c0.15,0,0.162-0.038,0.25-0.226c0.314-0.727,0.966-1.503,1.692-1.503c0.312,0,0.427,0.213,0.427,0.614
			c0,0.138-0.025,0.312-0.037,0.375L175.218,125.987 M177.874,117.54c0-0.212-0.163-0.475-0.502-0.475
			c-0.363,0-0.701,0.35-0.701,0.689c0,0.199,0.149,0.475,0.501,0.475C177.509,118.229,177.874,117.904,177.874,117.54z"/>
		<path d="M188.71,123.919c0.162,0,0.462,0,0.462-0.302c0-0.312-0.288-0.312-0.476-0.312h-8.271c-0.188,0-0.477,0-0.477,0.312
			c0,0.302,0.302,0.302,0.465,0.302H188.71 M188.696,121.162c0.188,0,0.476,0,0.476-0.312c0-0.302-0.3-0.302-0.462-0.302h-8.297
			c-0.163,0-0.465,0-0.465,0.302c0,0.312,0.289,0.312,0.477,0.312H188.696z"/>
		<path d="M194.271,117.403c0-0.338-0.025-0.351-0.377-0.351c-0.801,0.789-1.941,0.802-2.456,0.802v0.451
			c0.302,0,1.128,0,1.817-0.352v6.391c0,0.414,0,0.577-1.254,0.577h-0.477v0.451c0.227-0.013,1.768-0.05,2.232-0.05
			c0.389,0,1.967,0.037,2.243,0.05v-0.451h-0.477c-1.253,0-1.253-0.163-1.253-0.577V117.403"/>
		<path d="M208.933,98.211c0.09-0.394,0.27-1.056,0.27-1.162c0-0.322-0.252-0.482-0.52-0.482c-0.215,0-0.537,0.142-0.662,0.5
			c-0.053,0.125-0.895,3.54-1.02,4.006c-0.125,0.536-0.16,0.857-0.16,1.18c0,0.197,0,0.232,0.018,0.322
			c-0.412,0.946-0.947,1.501-1.645,1.501c-1.432,0-1.432-1.323-1.432-1.626c0-0.572,0.09-1.271,0.93-3.469
			c0.197-0.538,0.305-0.788,0.305-1.146c0-0.805-0.59-1.466-1.467-1.466c-1.698,0-2.359,2.592-2.359,2.753
			c0,0.18,0.179,0.18,0.215,0.18c0.18,0,0.196-0.036,0.285-0.321c0.483-1.664,1.182-2.218,1.807-2.218
			c0.16,0,0.447,0.018,0.447,0.589c0,0.447-0.197,0.949-0.322,1.252c-0.786,2.111-1.002,2.933-1.002,3.612
			c0,1.627,1.199,2.253,2.539,2.253c0.305,0,1.146,0,1.859-1.251c0.466,1.144,1.7,1.251,2.236,1.251c1.34,0,2.128-1.126,2.592-2.199
			c0.607-1.395,1.182-3.791,1.182-4.648c0-0.983-0.482-1.252-0.787-1.252c-0.447,0-0.895,0.464-0.895,0.857
			c0,0.233,0.107,0.341,0.27,0.483c0.195,0.196,0.642,0.662,0.642,1.521c0,0.607-0.517,2.359-0.983,3.271
			c-0.463,0.948-1.09,1.573-1.967,1.573c-0.84,0-1.323-0.536-1.323-1.555c0-0.501,0.127-1.056,0.197-1.306L208.933,98.211"/>
		<path d="M216.417,107.586c-0.214,0.864-0.878,1.593-1.617,1.593c-0.162,0-0.313-0.025-0.451-0.077
			c0.326-0.149,0.426-0.449,0.426-0.639c0-0.3-0.236-0.463-0.488-0.463c-0.388,0-0.715,0.338-0.715,0.739
			c0,0.477,0.49,0.789,1.241,0.789s2.219-0.451,2.606-1.979l1.128-4.486c0.038-0.139,0.062-0.251,0.062-0.438
			c0-0.689-0.589-1.179-1.341-1.179c-1.391,0-2.193,1.742-2.193,1.918c0,0.162,0.176,0.162,0.214,0.162
			c0.149,0,0.163-0.037,0.25-0.225c0.314-0.727,0.966-1.504,1.692-1.504c0.312,0,0.426,0.213,0.426,0.614
			c0,0.138-0.024,0.312-0.037,0.375L216.417,107.586 M219.073,99.14c0-0.213-0.162-0.476-0.502-0.476
			c-0.361,0-0.701,0.351-0.701,0.689c0,0.2,0.15,0.475,0.502,0.475C218.71,99.829,219.073,99.504,219.073,99.14z"/>
		<path d="M227.044,98.873c0.107-0.466,0.519-2.109,1.77-2.109c0.09,0,0.52,0,0.895,0.231c-0.5,0.091-0.857,0.537-0.857,0.966
			c0,0.286,0.196,0.626,0.68,0.626c0.394,0,0.965-0.321,0.965-1.037c0-0.93-1.055-1.18-1.662-1.18c-1.037,0-1.664,0.947-1.879,1.359
			c-0.446-1.182-1.412-1.359-1.931-1.359c-1.859,0-2.878,2.307-2.878,2.753c0,0.18,0.178,0.18,0.214,0.18
			c0.142,0,0.197-0.036,0.233-0.196c0.607-1.896,1.787-2.343,2.395-2.343c0.341,0,0.966,0.161,0.966,1.197
			c0,0.555-0.304,1.753-0.966,4.256c-0.285,1.108-0.91,1.859-1.698,1.859c-0.107,0-0.519,0-0.894-0.232
			c0.447-0.089,0.841-0.464,0.841-0.966c0-0.482-0.394-0.625-0.663-0.625c-0.535,0-0.982,0.464-0.982,1.037
			c0,0.822,0.894,1.18,1.682,1.18c1.18,0,1.822-1.251,1.876-1.359c0.214,0.663,0.858,1.359,1.931,1.359
			c1.843,0,2.861-2.306,2.861-2.753c0-0.18-0.16-0.18-0.214-0.18c-0.161,0-0.196,0.072-0.232,0.197
			c-0.591,1.912-1.807,2.342-2.378,2.342c-0.697,0-0.983-0.571-0.983-1.18c0-0.394,0.106-0.787,0.304-1.573L227.044,98.873"/>
		<path d="M234.218,107.586c-0.215,0.864-0.879,1.593-1.617,1.593c-0.163,0-0.314-0.025-0.452-0.077
			c0.327-0.149,0.427-0.449,0.427-0.639c0-0.3-0.238-0.463-0.489-0.463c-0.388,0-0.714,0.338-0.714,0.739
			c0,0.477,0.489,0.789,1.24,0.789c0.752,0,2.219-0.451,2.606-1.979l1.128-4.486c0.037-0.139,0.062-0.251,0.062-0.438
			c0-0.689-0.589-1.179-1.34-1.179c-1.391,0-2.194,1.742-2.194,1.918c0,0.162,0.177,0.162,0.214,0.162
			c0.15,0,0.162-0.037,0.25-0.225c0.314-0.727,0.966-1.504,1.692-1.504c0.312,0,0.427,0.213,0.427,0.614
			c0,0.138-0.025,0.312-0.037,0.375L234.218,107.586 M236.874,99.14c0-0.213-0.163-0.476-0.502-0.476
			c-0.363,0-0.701,0.351-0.701,0.689c0,0.2,0.149,0.475,0.501,0.475C236.509,99.829,236.874,99.504,236.874,99.14z"/>
		<path d="M250.185,100.161h4.989c0.25,0,0.591,0,0.591-0.358c0-0.357-0.341-0.357-0.591-0.357h-4.989v-5.007
			c0-0.25,0-0.59-0.356-0.59c-0.358,0-0.358,0.34-0.358,0.59v5.007h-5.007c-0.25,0-0.589,0-0.589,0.357
			c0,0.358,0.339,0.358,0.589,0.358h5.007v5.006c0,0.25,0,0.591,0.358,0.591c0.356,0,0.356-0.341,0.356-0.591V100.161"/>
		<path d="M263.464,98.82c0.107-0.394,0.107-0.43,0.27-0.627c0.877-1.162,1.681-1.43,2.145-1.43c0.645,0,1.127,0.536,1.127,1.68
			c0,1.057-0.589,3.112-0.91,3.791c-0.592,1.198-1.414,1.842-2.111,1.842c-0.608,0-1.198-0.482-1.198-1.806
			c0-0.34,0-0.68,0.286-1.805L263.464,98.82 M265.146,92.06c0-0.017,0-0.196-0.232-0.196c-0.411,0-1.717,0.144-2.182,0.18
			c-0.143,0.017-0.34,0.034-0.34,0.355c0,0.216,0.162,0.216,0.428,0.216c0.861,0,0.896,0.125,0.896,0.304
			c0,0.125-0.16,0.732-0.252,1.109l-1.465,5.828c-0.214,0.895-0.286,1.181-0.286,1.806c0,1.698,0.947,2.808,2.271,2.808
			c2.111,0,4.309-2.664,4.309-5.238c0-1.627-0.947-2.861-2.378-2.861c-0.822,0-1.554,0.519-2.093,1.073L265.146,92.06z"/>
		<path fill="#BE1622" d="M278.997,98.927c0-10.925-1.95-17.326-2.503-19.133c-1.218-3.969-3.202-8.153-6.188-11.836
			c-0.268-0.321-0.339-0.412-0.41-0.446c-0.035-0.02-0.055-0.036-0.34-0.036c-0.268,0-0.412,0-0.412,0.178
			c0,0.036,0,0.072,0.233,0.394c6.222,8.691,7.617,19.419,7.634,31.523c0,0.25,0.108,0.25,0.502,0.25h0.982
			c0.377,0,0.482,0,0.502-0.196V98.927"/>
		<path fill="#BE1622" d="M278.997,99.776c-0.02-0.197-0.125-0.197-0.502-0.197h-0.982c-0.394,0-0.502,0-0.502,0.25
			c0,1.843-0.017,6.098-0.482,10.551c-0.965,9.243-3.344,15.645-7.26,21.134c-0.125,0.161-0.125,0.197-0.125,0.233
			c0,0.178,0.145,0.178,0.412,0.178c0.285,0,0.321,0,0.357-0.036c0.072-0.053,2.342-2.664,4.148-6.258
			c2.36-4.72,3.845-10.138,4.506-16.646c0.053-0.555,0.43-4.273,0.43-8.511V99.776"/>
		<rect x="141.972" y="67.172" fill="none" width="138" height="65"/>
	</g>
</g>
<g id="Layer_3" display="none">
	<g display="inline">
		<defs>
			<rect id="SVGID_13_" x="172.019" y="76.101" width="96" height="52"/>
		</defs>
		<clipPath id="SVGID_14_">
			<use xlink:href="#SVGID_13_"  overflow="visible"/>
		</clipPath>
		<path clip-path="url(#SVGID_14_)" d="M183.558,80.786c-0.062,0.251-0.176,0.676-0.176,0.74c0,0.274,0.225,0.399,0.426,0.399
			c0.227,0,0.426-0.162,0.488-0.274s0.162-0.515,0.225-0.778c0.062-0.237,0.202-0.814,0.277-1.127
			c0.074-0.276,0.15-0.551,0.213-0.84c0.137-0.539,0.137-0.564,0.389-0.952c0.4-0.613,1.026-1.328,2.004-1.328
			c0.702,0,0.74,0.577,0.74,0.877c0,0.751-0.539,2.144-0.74,2.669c-0.137,0.352-0.188,0.464-0.188,0.677
			c0,0.665,0.553,1.077,1.191,1.077c1.253,0,1.805-1.729,1.805-1.917c0-0.162-0.164-0.162-0.201-0.162
			c-0.176,0-0.188,0.075-0.238,0.212c-0.289,1.004-0.826,1.518-1.328,1.518c-0.264,0-0.314-0.177-0.314-0.439
			c0-0.288,0.062-0.451,0.289-1.016c0.15-0.387,0.664-1.717,0.664-2.418c0-0.2,0-0.727-0.463-1.09
			c-0.213-0.164-0.577-0.339-1.166-0.339c-1.129,0-1.817,0.739-2.217,1.266c-0.102-1.065-0.991-1.266-1.631-1.266
			c-1.04,0-1.742,0.64-2.118,1.141c-0.087-0.865-0.827-1.141-1.341-1.141c-0.539,0-0.826,0.39-0.988,0.677
			c-0.277,0.464-0.452,1.178-0.452,1.24c0,0.163,0.175,0.163,0.212,0.163c0.178,0,0.189-0.038,0.277-0.375
			c0.188-0.739,0.425-1.354,0.914-1.354c0.326,0,0.414,0.275,0.414,0.614c0,0.237-0.113,0.701-0.2,1.039
			c-0.089,0.339-0.214,0.854-0.276,1.128l-0.402,1.604c-0.049,0.163-0.125,0.476-0.125,0.515c0,0.274,0.227,0.399,0.428,0.399
			c0.225,0,0.426-0.162,0.488-0.274s0.162-0.515,0.225-0.778c0.062-0.237,0.201-0.814,0.277-1.127
			c0.074-0.276,0.15-0.551,0.213-0.84c0.137-0.515,0.162-0.614,0.525-1.128c0.351-0.5,0.939-1.152,1.881-1.152
			c0.727,0,0.738,0.64,0.738,0.877c0,0.313-0.037,0.477-0.213,1.178L183.558,80.786"/>
		<path clip-path="url(#SVGID_14_)" d="M194.155,112.234l2.162-5.723h-0.446c-0.696,1.859-2.593,3.075-4.648,3.613
			c-0.375,0.089-2.128,0.553-5.562,0.553h-10.782l9.102-10.674c0.125-0.144,0.161-0.196,0.161-0.285c0-0.036,0-0.091-0.125-0.27
			l-8.333-11.391h9.798c2.397,0,4.023,0.252,4.186,0.286c0.965,0.144,2.521,0.447,3.934,1.343c0.447,0.286,1.662,1.091,2.271,2.539
			h0.446l-2.162-5.025H173.02c-0.411,0-0.429,0.018-0.483,0.125c-0.017,0.053-0.017,0.394-0.017,0.591l9.46,12.945l-9.264,10.854
			c-0.18,0.215-0.18,0.304-0.18,0.321c0,0.197,0.162,0.197,0.483,0.197H194.155"/>
		<path clip-path="url(#SVGID_14_)" d="M174.964,126.015c-0.215,0.863-0.879,1.592-1.617,1.592c-0.163,0-0.314-0.025-0.452-0.076
			c0.327-0.15,0.427-0.45,0.427-0.64c0-0.3-0.238-0.462-0.489-0.462c-0.388,0-0.714,0.337-0.714,0.738
			c0,0.477,0.488,0.789,1.24,0.789s2.219-0.451,2.606-1.979l1.128-4.485c0.037-0.14,0.062-0.252,0.062-0.439
			c0-0.689-0.589-1.178-1.34-1.178c-1.391,0-2.194,1.742-2.194,1.917c0,0.162,0.177,0.162,0.214,0.162
			c0.15,0,0.162-0.037,0.25-0.225c0.314-0.727,0.966-1.503,1.692-1.503c0.312,0,0.427,0.212,0.427,0.613
			c0,0.138-0.025,0.312-0.037,0.375L174.964,126.015 M177.62,117.568c0-0.213-0.163-0.475-0.502-0.475
			c-0.363,0-0.701,0.35-0.701,0.688c0,0.2,0.149,0.476,0.501,0.476C177.255,118.257,177.62,117.932,177.62,117.568z"/>
		<path clip-path="url(#SVGID_14_)" d="M188.355,123.948c0.163,0,0.462,0,0.462-0.302c0-0.312-0.287-0.312-0.475-0.312h-8.271
			c-0.188,0-0.477,0-0.477,0.312c0,0.302,0.301,0.302,0.464,0.302H188.355 M188.343,121.19c0.188,0,0.475,0,0.475-0.312
			c0-0.302-0.299-0.302-0.462-0.302h-8.297c-0.163,0-0.464,0-0.464,0.302c0,0.312,0.289,0.312,0.477,0.312H188.343z"/>
		<path clip-path="url(#SVGID_14_)" d="M193.917,117.43c0-0.337-0.025-0.35-0.377-0.35c-0.802,0.789-1.942,0.802-2.457,0.802v0.451
			c0.303,0,1.129,0,1.818-0.352v6.391c0,0.414,0,0.576-1.254,0.576h-0.477v0.452c0.227-0.013,1.768-0.05,2.231-0.05
			c0.39,0,1.968,0.037,2.243,0.05v-0.452h-0.477c-1.252,0-1.252-0.162-1.252-0.576V117.43"/>
		<path clip-path="url(#SVGID_14_)" d="M208.679,98.14c0.09-0.395,0.27-1.057,0.27-1.163c0-0.321-0.252-0.482-0.52-0.482
			c-0.215,0-0.537,0.142-0.662,0.5c-0.053,0.125-0.895,3.541-1.02,4.006c-0.125,0.536-0.16,0.858-0.16,1.18
			c0,0.197,0,0.233,0.018,0.322c-0.412,0.946-0.947,1.501-1.645,1.501c-1.432,0-1.432-1.323-1.432-1.626
			c0-0.572,0.09-1.271,0.93-3.469c0.197-0.538,0.305-0.788,0.305-1.146c0-0.805-0.59-1.466-1.467-1.466
			c-1.698,0-2.359,2.593-2.359,2.753c0,0.18,0.178,0.18,0.215,0.18c0.18,0,0.196-0.035,0.285-0.321
			c0.482-1.664,1.182-2.218,1.807-2.218c0.16,0,0.447,0.018,0.447,0.59c0,0.446-0.197,0.948-0.322,1.251
			c-0.786,2.111-1.002,2.934-1.002,3.612c0,1.627,1.199,2.254,2.539,2.254c0.305,0,1.146,0,1.859-1.252
			c0.466,1.144,1.7,1.252,2.236,1.252c1.34,0,2.128-1.127,2.592-2.2c0.607-1.394,1.182-3.791,1.182-4.648
			c0-0.983-0.482-1.252-0.787-1.252c-0.447,0-0.895,0.464-0.895,0.858c0,0.232,0.107,0.34,0.27,0.482
			c0.195,0.197,0.642,0.662,0.642,1.521c0,0.607-0.517,2.359-0.983,3.271c-0.463,0.948-1.09,1.573-1.967,1.573
			c-0.84,0-1.323-0.535-1.323-1.555c0-0.501,0.126-1.056,0.196-1.306L208.679,98.14"/>
		<path clip-path="url(#SVGID_14_)" d="M216.063,107.515c-0.215,0.863-0.879,1.592-1.617,1.592c-0.162,0-0.314-0.025-0.451-0.076
			c0.326-0.15,0.426-0.45,0.426-0.64c0-0.3-0.237-0.462-0.488-0.462c-0.389,0-0.715,0.337-0.715,0.738
			c0,0.477,0.489,0.789,1.24,0.789c0.752,0,2.219-0.451,2.607-1.979l1.127-4.485c0.038-0.14,0.062-0.252,0.062-0.439
			c0-0.689-0.588-1.178-1.34-1.178c-1.391,0-2.193,1.742-2.193,1.917c0,0.162,0.176,0.162,0.213,0.162
			c0.15,0,0.163-0.037,0.25-0.225c0.314-0.727,0.967-1.503,1.693-1.503c0.312,0,0.426,0.212,0.426,0.614
			c0,0.137-0.025,0.312-0.037,0.375L216.063,107.515 M218.72,99.068c0-0.213-0.162-0.475-0.502-0.475
			c-0.362,0-0.701,0.35-0.701,0.688c0,0.2,0.15,0.476,0.502,0.476C218.355,99.757,218.72,99.432,218.72,99.068z"/>
		<path clip-path="url(#SVGID_14_)" d="M226.79,98.8c0.107-0.465,0.519-2.109,1.77-2.109c0.09,0,0.52,0,0.895,0.231
			c-0.5,0.091-0.857,0.538-0.857,0.966c0,0.286,0.196,0.627,0.68,0.627c0.393,0,0.965-0.322,0.965-1.038
			c0-0.93-1.055-1.18-1.662-1.18c-1.037,0-1.664,0.947-1.879,1.359c-0.446-1.181-1.412-1.359-1.931-1.359
			c-1.859,0-2.878,2.307-2.878,2.753c0,0.18,0.178,0.18,0.214,0.18c0.142,0,0.196-0.035,0.233-0.196
			c0.607-1.896,1.787-2.343,2.395-2.343c0.341,0,0.966,0.161,0.966,1.197c0,0.555-0.304,1.753-0.966,4.256
			c-0.285,1.108-0.91,1.859-1.698,1.859c-0.108,0-0.519,0-0.894-0.232c0.447-0.089,0.84-0.464,0.84-0.966
			c0-0.482-0.393-0.625-0.662-0.625c-0.535,0-0.982,0.464-0.982,1.038c0,0.821,0.894,1.18,1.682,1.18
			c1.18,0,1.822-1.252,1.876-1.359c0.214,0.662,0.858,1.359,1.931,1.359c1.843,0,2.861-2.307,2.861-2.754
			c0-0.179-0.16-0.179-0.214-0.179c-0.161,0-0.196,0.071-0.233,0.196c-0.59,1.912-1.806,2.342-2.377,2.342
			c-0.697,0-0.983-0.571-0.983-1.18c0-0.394,0.106-0.787,0.304-1.573L226.79,98.8"/>
		<path clip-path="url(#SVGID_14_)" d="M233.964,107.515c-0.215,0.863-0.879,1.592-1.617,1.592c-0.163,0-0.314-0.025-0.452-0.076
			c0.327-0.15,0.427-0.45,0.427-0.64c0-0.3-0.238-0.462-0.489-0.462c-0.388,0-0.714,0.337-0.714,0.738
			c0,0.477,0.488,0.789,1.24,0.789s2.219-0.451,2.606-1.979l1.128-4.485c0.037-0.14,0.062-0.252,0.062-0.439
			c0-0.689-0.589-1.178-1.34-1.178c-1.391,0-2.194,1.742-2.194,1.917c0,0.162,0.177,0.162,0.214,0.162
			c0.15,0,0.162-0.037,0.25-0.225c0.314-0.727,0.966-1.503,1.692-1.503c0.312,0,0.427,0.212,0.427,0.614
			c0,0.137-0.025,0.312-0.037,0.375L233.964,107.515 M236.62,99.068c0-0.213-0.163-0.475-0.502-0.475
			c-0.363,0-0.701,0.35-0.701,0.688c0,0.2,0.149,0.476,0.501,0.476C236.255,99.757,236.62,99.432,236.62,99.068z"/>
		<path clip-path="url(#SVGID_14_)" d="M249.931,100.088h4.988c0.25,0,0.592,0,0.592-0.358c0-0.357-0.342-0.357-0.592-0.357h-4.988
			v-5.006c0-0.25,0-0.591-0.356-0.591c-0.358,0-0.358,0.341-0.358,0.591v5.006h-5.008c-0.25,0-0.588,0-0.588,0.357
			c0,0.358,0.338,0.358,0.588,0.358h5.008v5.006c0,0.25,0,0.591,0.358,0.591c0.356,0,0.356-0.341,0.356-0.591V100.088"/>
		<path clip-path="url(#SVGID_14_)" d="M263.11,98.748c0.107-0.394,0.107-0.43,0.269-0.627c0.876-1.162,1.681-1.43,2.146-1.43
			c0.644,0,1.127,0.536,1.127,1.68c0,1.057-0.59,3.113-0.912,3.791c-0.59,1.198-1.414,1.842-2.11,1.842
			c-0.608,0-1.198-0.482-1.198-1.806c0-0.339,0-0.68,0.287-1.805L263.11,98.748 M264.792,91.988c0-0.017,0-0.196-0.233-0.196
			c-0.411,0-1.716,0.144-2.181,0.18c-0.143,0.017-0.34,0.034-0.34,0.356c0,0.215,0.161,0.215,0.428,0.215
			c0.859,0,0.896,0.125,0.896,0.304c0,0.125-0.162,0.732-0.252,1.109l-1.466,5.828c-0.214,0.896-0.286,1.182-0.286,1.807
			c0,1.698,0.947,2.808,2.271,2.808c2.11,0,4.31-2.664,4.31-5.239c0-1.627-0.947-2.861-2.379-2.861
			c-0.821,0-1.555,0.519-2.092,1.073L264.792,91.988z"/>
	</g>
</g>
</svg>
