<?xml version="1.0" encoding="UTF-8" standalone="no"?>
<!DOCTYPE svg PUBLIC "-//W3C//DTD SVG 1.1//EN" "http://www.w3.org/Graphics/SVG/1.1/DTD/svg11.dtd">
<svg width="100%" height="100%" viewBox="0 0 237 379" version="1.1" xmlns="http://www.w3.org/2000/svg" xmlns:xlink="http://www.w3.org/1999/xlink" xml:space="preserve" xmlns:serif="http://www.serif.com/" style="fill-rule:evenodd;clip-rule:evenodd;stroke-miterlimit:10;">
    <g transform="matrix(0.409188,0,0,0.65711,5.5839,128.321)">
        <rect id="Artboard1" x="-13.646" y="-195.28" width="578.855" height="575.702" style="fill:none;"/>
        <g id="Artboard11" serif:id="Artboard1">
            <g transform="matrix(0,-0.684817,1.09974,0,-797.181,219.839)">
                <path d="M279.75,758.75L560.25,758.75" style="fill:none;fill-rule:nonzero;stroke:black;stroke-width:2px;"/>
            </g>
            <g transform="matrix(0,0.684817,-1.09974,0,1026.46,-259.02)">
                <path d="M419.5,899.5L420.5,899.5" style="fill:none;fill-rule:nonzero;stroke:black;stroke-width:2px;"/>
            </g>
            <g transform="matrix(1.09974,0,0,-0.684817,-424.645,248.567)">
                <path d="M420,617.5L424.6,603.2L415.4,603.2L420,617.5Z" style="fill-rule:nonzero;stroke:black;stroke-width:2px;"/>
            </g>
            <g transform="matrix(1.09974,0,0,-0.684817,-424.645,645.281)">
                <path d="M421,900L841.5,900" style="fill:none;fill-rule:nonzero;stroke:black;stroke-width:2px;"/>
            </g>
            <g transform="matrix(-1.09974,0,0,-0.684817,500.235,645.281)">
                <path d="M420,900L421,900" style="fill:none;fill-rule:nonzero;stroke:black;stroke-width:2px;"/>
            </g>
            <g transform="matrix(1.09974,0,0,-0.684817,-424.645,645.281)">
                <path d="M856.8,900L842.5,895.4L842.5,904.6L856.8,900Z" style="fill-rule:nonzero;stroke:black;stroke-width:2px;"/>
            </g>
            <g transform="matrix(0,0.684817,-1.09974,0,1043.73,-638.888)">
                <circle cx="705.2" cy="630" r="10" style="fill:rgb(153,210,242);stroke:black;stroke-width:2px;"/>
            </g>
            <g transform="matrix(0,0.684817,-1.09974,0,1043.73,-611.495)">
                <circle cx="685.2" cy="650" r="10" style="fill:rgb(153,210,242);stroke:black;stroke-width:2px;"/>
            </g>
            <g transform="matrix(0,0.684817,-1.09974,0,1087.71,-611.495)">
                <circle cx="705.2" cy="670" r="10" style="fill:rgb(153,210,242);stroke:black;stroke-width:2px;"/>
            </g>
            <g transform="matrix(0,0.684817,-1.09974,0,1153.7,-625.191)">
                <circle cx="745.2" cy="690" r="10" style="fill:rgb(153,210,242);stroke:black;stroke-width:2px;"/>
            </g>
            <g transform="matrix(0,0.684817,-1.09974,0,1087.71,-584.102)">
                <circle cx="685.2" cy="690" r="10" style="fill:rgb(153,210,242);stroke:black;stroke-width:2px;"/>
            </g>
            <g transform="matrix(0,0.684817,-1.09974,0,1109.71,-652.584)">
                <circle cx="745.2" cy="650" r="10" style="fill:rgb(153,210,242);stroke:black;stroke-width:2px;"/>
            </g>
            <g transform="matrix(0,0.684817,-1.09974,0,1111.36,-626.219)">
                <circle cx="726.7" cy="670" r="10" style="fill:rgb(153,210,242);stroke:black;stroke-width:2px;"/>
            </g>
            <g transform="matrix(-0.646096,0.554085,-0.889798,-0.40233,1407.56,-301.417)">
                <circle cx="726.7" cy="633.4" r="10" style="fill:rgb(153,210,242);stroke:black;stroke-width:2px;"/>
            </g>
            <g transform="matrix(-0.646096,0.554085,-0.889798,-0.40233,1501.16,-279.901)">
                <circle cx="761.2" cy="670.8" r="10" style="fill:rgb(153,210,242);stroke:black;stroke-width:2px;"/>
            </g>
            <g transform="matrix(-0.646096,0.554085,-0.889798,-0.40233,1452.33,-321.755)">
                <circle cx="754.6" cy="628.9" r="10" style="fill:rgb(153,210,242);stroke:black;stroke-width:2px;"/>
            </g>
            <g transform="matrix(-0.646096,0.554085,-0.889798,-0.40233,1535.84,-338.295)">
                <circle cx="798.7" cy="636.2" r="10" style="fill:rgb(153,210,242);stroke:black;stroke-width:2px;"/>
            </g>
            <g transform="matrix(0,0.684817,-1.09974,0,994.017,-375.096)">
                <circle cx="490" cy="800" r="10" style="fill:rgb(255,143,128);stroke:black;stroke-width:2px;"/>
            </g>
            <g transform="matrix(0,0.684817,-1.09974,0,994.017,-347.703)">
                <circle cx="470" cy="820" r="10" style="fill:rgb(255,143,128);stroke:black;stroke-width:2px;"/>
            </g>
            <g transform="matrix(0,0.684817,-1.09974,0,1038.01,-347.703)">
                <circle cx="490" cy="840" r="10" style="fill:rgb(255,143,128);stroke:black;stroke-width:2px;"/>
            </g>
            <g transform="matrix(0,0.684817,-1.09974,0,1109.49,-378.52)">
                <circle cx="545" cy="850" r="10" style="fill:rgb(255,143,128);stroke:black;stroke-width:2px;"/>
            </g>
            <g transform="matrix(0,0.684817,-1.09974,0,1038.01,-320.311)">
                <circle cx="470" cy="860" r="10" style="fill:rgb(255,143,128);stroke:black;stroke-width:2px;"/>
            </g>
            <g transform="matrix(0,0.684817,-1.09974,0,1060,-416.185)">
                <circle cx="550" cy="800" r="10" style="fill:rgb(255,143,128);stroke:black;stroke-width:2px;"/>
            </g>
            <g transform="matrix(0,0.684817,-1.09974,0,1049,-354.552)">
                <circle cx="500" cy="840" r="10" style="fill:rgb(255,143,128);stroke:black;stroke-width:2px;"/>
            </g>
            <g transform="matrix(0,0.684817,-1.09974,0,950.027,-375.096)">
                <circle cx="470" cy="780" r="10" style="fill:rgb(255,143,128);stroke:black;stroke-width:2px;"/>
            </g>
            <g transform="matrix(0,0.684817,-1.09974,0,1038.01,-429.882)">
                <circle cx="550" cy="780" r="10" style="fill:rgb(255,143,128);stroke:black;stroke-width:2px;"/>
            </g>
            <g transform="matrix(0,0.684817,-1.09974,0,972.022,-416.185)">
                <circle cx="510" cy="760" r="10" style="fill:rgb(255,143,128);stroke:black;stroke-width:2px;"/>
            </g>
            <g transform="matrix(0,0.684817,-1.09974,0,1049,-381.944)">
                <circle cx="520" cy="820" r="10" style="fill:rgb(255,143,128);stroke:black;stroke-width:2px;"/>
            </g>
            <g transform="matrix(1.09974,0,0,-0.684817,-424.645,439.836)">
                <path d="M540.6,879.2L546.6,871.4M552.7,863.5L564.7,847.9M570.7,840.1L582.8,824.4M588.8,816.6L600.8,800.9M606.9,793.1L618.9,777.4M624.9,769.6L637,753.9M643,746.1L655.1,730.4M661.1,722.6L673.1,706.9M679.2,699.1L691.2,683.4M697.2,675.6L709.3,659.9M715.3,652.1L727.3,636.5M733.4,628.6L739.4,620.8" style="fill:none;fill-rule:nonzero;stroke:black;stroke-width:2px;"/>
            </g>
            <g transform="matrix(-0.659843,-0.547854,0.87979,-0.41089,-19.7656,388.392)">
                <path d="M539.8,620.4L540.8,620.4" style="fill:none;fill-rule:nonzero;stroke:black;stroke-width:2px;"/>
            </g>
            <g transform="matrix(0.659843,0.547854,-0.87979,0.41089,674.609,-751.691)">
                <path d="M739.2,879.6L740.2,879.6" style="fill:none;fill-rule:nonzero;stroke:black;stroke-width:2px;"/>
            </g>
            <g transform="matrix(0,0.684817,-1.09974,0,928.033,-525.756)">
                <circle cx="570" cy="660" r="10" style="fill:rgb(255,143,128);stroke:black;stroke-width:2px;"/>
            </g>
            <g transform="matrix(0,0.684817,-1.09974,0,1147.98,-470.971)">
                <circle cx="630" cy="800" r="10" style="fill:rgb(255,143,128);stroke:black;stroke-width:2px;"/>
            </g>
            <g transform="matrix(0,0.684817,-1.09974,0,906.038,-402.489)">
                <circle cx="470" cy="740" r="10" style="fill:rgb(255,143,128);stroke:black;stroke-width:2px;"/>
            </g>
            <g transform="matrix(0,0.684817,-1.09974,0,1125.99,-402.489)">
                <circle cx="570" cy="840" r="10" style="fill:rgb(255,143,128);stroke:black;stroke-width:2px;"/>
            </g>
            <g transform="matrix(0,0.684817,-1.09974,0,895.04,-450.426)">
                <circle cx="500" cy="700" r="10" style="fill:rgb(255,143,128);stroke:black;stroke-width:2px;"/>
            </g>
            <g transform="matrix(0,0.684817,-1.09974,0,1241.68,-570.406)">
                <circle cx="745.2" cy="770" r="10" style="fill:rgb(255,143,128);stroke:black;stroke-width:2px;"/>
            </g>
            <g transform="matrix(0,0.684817,-1.09974,0,1131.7,-584.102)">
                <circle cx="705.2" cy="710" r="10" style="fill:rgb(153,210,242);stroke:black;stroke-width:2px;"/>
            </g>
            <g transform="matrix(0,0.684817,-1.09974,0,1032.73,-590.95)">
                <circle cx="665.2" cy="660" r="10" style="fill:rgb(153,210,242);stroke:black;stroke-width:2px;"/>
            </g>
            <g transform="matrix(-0.646096,0.554085,-0.889798,-0.40233,1631.61,-190.922)">
                <circle cx="787.4" cy="766" r="10" style="fill:rgb(153,210,242);stroke:black;stroke-width:2px;"/>
            </g>
            <g transform="matrix(-0.646096,0.554085,-0.889798,-0.40233,1263.74,-260.426)">
                <circle cx="646" cy="630" r="10" style="fill:rgb(153,210,242);stroke:black;stroke-width:2px;"/>
            </g>
            <g transform="matrix(-0.646096,0.554085,-0.889798,-0.40233,1566.51,-246.681)">
                <circle cx="778.6" cy="710.2" r="10" style="fill:rgb(153,210,242);stroke:black;stroke-width:2px;"/>
            </g>
            <g transform="matrix(-0.646096,0.554085,-0.889798,-0.40233,1614.56,-147.197)">
                <circle cx="763.4" cy="794" r="10" style="fill:rgb(153,210,242);stroke:black;stroke-width:2px;"/>
            </g>
            <g transform="matrix(0,0.684817,-1.09974,0,1175.69,-584.102)">
                <circle cx="725.2" cy="730" r="10" style="fill:rgb(153,210,242);stroke:black;stroke-width:2px;"/>
            </g>
            <g transform="matrix(0,0.684817,-1.09974,0,1005.01,-477.819)">
                <circle cx="570" cy="730" r="10" style="fill:rgb(153,210,242);stroke:black;stroke-width:2px;"/>
            </g>
            <g transform="matrix(0,0.684817,-1.09974,0,1090.35,-489.871)">
                <circle cx="617.6" cy="760" r="10" style="fill:rgb(153,210,242);stroke:black;stroke-width:2px;"/>
            </g>
            <g transform="matrix(0,0.684817,-1.09974,0,1211.33,-483.023)">
                <circle cx="667.6" cy="820" r="10" style="fill:rgb(153,210,242);stroke:black;stroke-width:2px;"/>
            </g>
            <g transform="matrix(0,0.684817,-1.09974,0,1147.98,-525.756)">
                <circle cx="670" cy="760" r="10" style="fill:rgb(255,143,128);stroke:black;stroke-width:2px;"/>
            </g>
            <g transform="matrix(1.09974,0,0,-0.684817,-1061.25,798.871)">
                <path d="M1187,779.3L1186,775.4L1184,770.7L1182,766.1L1180,761.7L1179,760M1173,751.3L1171,749.3L1168,745.5L1165,741.9L1161,738.6L1158,736.6M1150,730.7L1148,730.1L1144,727.8L1139,725.8L1135,724.1L1130,722.7M1120,720.7L1115,720.2L1110,720L1104,720.2L1099,720.6L1099,720.7M1089,722.7L1085,723.9L1080,725.5L1076,727.5L1071,729.7L1070,730.7M1061,736.6L1059,738.1L1055,741.5L1051,745L1048,748.8L1046,751.3M1040,760L1040,761.1L1037,765.5L1035,770.1L1034,774.8L1032,779.3M1030,789.6L1030,810.4M1032,820.7L1033,824.6L1035,829.3L1037,833.9L1039,838.3L1040,840M1046,848.7L1048,850.7L1051,854.5L1055,858.1L1058,861.4L1061,863.4M1070,869.3L1071,869.9L1075,872.2L1080,874.2L1084,875.9L1089,877.3M1099,879.3L1104,879.8L1109,880L1110,880L1115,879.8L1120,879.4L1120,879.3M1130,877.3L1134,876.1L1139,874.5L1143,872.5L1148,870.3L1150,869.3M1158,863.4L1160,861.9L1164,858.5L1168,855L1171,851.2L1173,848.7M1179,840L1179,838.9L1182,834.5L1184,829.9L1185,825.2L1187,820.7M1189,810.4L1189,805.7L1190,800.7L1190,800L1189,794.9L1189,789.6" style="fill:none;fill-rule:nonzero;stroke:black;stroke-width:2px;"/>
            </g>
            <g transform="matrix(1.09974,0,0,-0.684817,-1061.25,661.908)">
                <path d="M1417,679.3L1416,675.4L1414,670.7L1412,666.1L1410,661.7L1409,660M1403,651.3L1401,649.3L1398,645.5L1395,641.9L1391,638.6L1388,636.6M1380,630.7L1378,630.1L1374,627.8L1369,625.8L1365,624.1L1360,622.7M1350,620.7L1345,620.2L1340,620L1334,620.2L1329,620.6L1329,620.7M1319,622.7L1315,623.9L1310,625.5L1306,627.5L1301,629.7L1300,630.7M1291,636.6L1289,638.1L1285,641.5L1281,645L1278,648.8L1276,651.3M1270,660L1270,661.1L1267,665.5L1265,670.1L1264,674.8L1262,679.3M1260,689.6L1260,710.4M1262,720.7L1263,724.6L1265,729.3L1267,733.9L1269,738.3L1270,740M1276,748.7L1278,750.7L1281,754.5L1285,758.1L1288,761.4L1291,763.4M1300,769.3L1301,769.9L1305,772.2L1310,774.2L1314,775.9L1319,777.3M1329,779.3L1334,779.8L1339,780L1340,780L1345,779.8L1350,779.4L1350,779.3M1360,777.3L1364,776.1L1369,774.5L1373,772.5L1378,770.3L1380,769.3M1388,763.4L1390,761.9L1394,758.5L1398,755L1401,751.2L1403,748.7M1409,740L1409,738.9L1412,734.5L1414,729.9L1415,725.2L1417,720.7M1419,710.4L1419,705.7L1420,700.7L1420,700L1419,694.9L1419,689.6" style="fill:none;fill-rule:nonzero;stroke:black;stroke-width:2px;"/>
            </g>
            <g transform="matrix(0,-0.684817,1.09974,0,-795.939,907.586)">
                <path d="M859.75,758.75L1140.25,758.75" style="fill:none;fill-rule:nonzero;stroke:black;stroke-width:2px;"/>
            </g>
            <g transform="matrix(0,0.684817,-1.09974,0,1027.7,-365.66)">
                <path d="M999.5,899.5L1000.5,899.5" style="fill:none;fill-rule:nonzero;stroke:black;stroke-width:2px;"/>
            </g>
            <g transform="matrix(1.09974,0,0,-0.684817,-1061.25,539.12)">
                <path d="M1000,617.5L1004,603.2L995.4,603.2L1000,617.5Z" style="fill-rule:nonzero;stroke:black;stroke-width:2px;"/>
            </g>
            <g transform="matrix(1.09974,0,0,-0.684817,-1061.25,935.835)">
                <path d="M1001,900L1423.22,900" style="fill:none;fill-rule:nonzero;stroke:black;stroke-width:2px;"/>
            </g>
            <g transform="matrix(-1.09974,0,0,-0.684817,1139.32,935.835)">
                <path d="M1000,900L1001,900" style="fill:none;fill-rule:nonzero;stroke:black;stroke-width:2px;"/>
            </g>
            <g transform="matrix(1.09974,0,0,-0.684817,-1036.81,935.835)">
                <path d="M1416,900L1402,895.4L1402,904.6L1416,900Z" style="fill-rule:nonzero;stroke:black;stroke-width:2px;"/>
            </g>
            <g transform="matrix(0,0.684817,-1.09974,0,1171.22,-741.967)">
                <path d="M1340,680C1345.5,680 1350,685 1350,690C1350,696 1345.5,700 1340,700C1334.5,700 1330,696 1330,690C1330,685 1334.5,680 1340,680Z" style="fill:rgb(178,178,178);fill-rule:nonzero;stroke:black;stroke-width:2px;"/>
            </g>
            <g transform="matrix(0,0.684817,-1.09974,0,1171.22,-714.574)">
                <path d="M1320,700C1325.5,700 1330,705 1330,710C1330,716 1325.5,720 1320,720C1314.5,720 1310,716 1310,710C1310,705 1314.5,700 1320,700Z" style="fill:rgb(178,178,178);fill-rule:nonzero;stroke:black;stroke-width:2px;"/>
            </g>
            <g transform="matrix(0,0.684817,-1.09974,0,1215.21,-714.574)">
                <path d="M1340,720C1345.5,720 1350,725 1350,730C1350,736 1345.5,740 1340,740C1334.5,740 1330,736 1330,730C1330,725 1334.5,720 1340,720Z" style="fill:rgb(178,178,178);fill-rule:nonzero;stroke:black;stroke-width:2px;"/>
            </g>
            <g transform="matrix(0,0.684817,-1.09974,0,1281.19,-728.27)">
                <path d="M1380,740C1385.5,740 1390,745 1390,750C1390,756 1385.5,760 1380,760C1374.5,760 1370,756 1370,750C1370,745 1374.5,740 1380,740Z" style="fill:rgb(178,178,178);fill-rule:nonzero;stroke:black;stroke-width:2px;"/>
            </g>
            <g transform="matrix(0,0.684817,-1.09974,0,1215.21,-687.181)">
                <path d="M1320,740C1325.5,740 1330,745 1330,750C1330,756 1325.5,760 1320,760C1314.5,760 1310,756 1310,750C1310,745 1314.5,740 1320,740Z" style="fill:rgb(178,178,178);fill-rule:nonzero;stroke:black;stroke-width:2px;"/>
            </g>
            <g transform="matrix(0,0.684817,-1.09974,0,1237.2,-755.663)">
                <path d="M1380,700C1385.5,700 1390,705 1390,710C1390,716 1385.5,720 1380,720C1374.5,720 1370,716 1370,710C1370,705 1374.5,700 1380,700Z" style="fill:rgb(178,178,178);fill-rule:nonzero;stroke:black;stroke-width:2px;"/>
            </g>
            <g transform="matrix(0,0.684817,-1.09974,0,984.262,-515.977)">
                <path d="M1090,760C1095.5,760 1100,765 1100,770C1100,776 1095.5,780 1090,780C1084.5,780 1080,776 1080,770C1080,765 1084.5,760 1090,760Z" style="fill:rgb(178,178,178);fill-rule:nonzero;stroke:black;stroke-width:2px;"/>
            </g>
            <g transform="matrix(0,0.684817,-1.09974,0,984.262,-488.585)">
                <path d="M1070,780C1075.5,780 1080,785 1080,790C1080,796 1075.5,800 1070,800C1064.5,800 1060,796 1060,790C1060,785 1064.5,780 1070,780Z" style="fill:rgb(178,178,178);fill-rule:nonzero;stroke:black;stroke-width:2px;"/>
            </g>
            <g transform="matrix(0,0.684817,-1.09974,0,1028.25,-488.585)">
                <path d="M1090,800C1095.5,800 1100,805 1100,810C1100,816 1095.5,820 1090,820C1084.5,820 1080,816 1080,810C1080,805 1084.5,800 1090,800Z" style="fill:rgb(178,178,178);fill-rule:nonzero;stroke:black;stroke-width:2px;"/>
            </g>
            <g transform="matrix(0,0.684817,-1.09974,0,1072.24,-488.585)">
                <path d="M1110,820C1115.5,820 1120,825 1120,830C1120,836 1115.5,840 1110,840C1104.5,840 1100,836 1100,830C1100,825 1104.5,820 1110,820Z" style="fill:rgb(178,178,178);fill-rule:nonzero;stroke:black;stroke-width:2px;"/>
            </g>
            <g transform="matrix(0,0.684817,-1.09974,0,1028.25,-461.192)">
                <path d="M1070,820C1075.5,820 1080,825 1080,830C1080,836 1075.5,840 1070,840C1064.5,840 1060,836 1060,830C1060,825 1064.5,820 1070,820Z" style="fill:rgb(178,178,178);fill-rule:nonzero;stroke:black;stroke-width:2px;"/>
            </g>
            <g transform="matrix(0,0.684817,-1.09974,0,1028.25,-515.977)">
                <path d="M1110,780C1115.5,780 1120,785 1120,790C1120,796 1115.5,800 1110,800C1104.5,800 1100,796 1100,790C1100,785 1104.5,780 1110,780Z" style="fill:rgb(178,178,178);fill-rule:nonzero;stroke:black;stroke-width:2px;"/>
            </g>
            <g transform="matrix(0,0.684817,-1.09974,0,1072.24,-515.977)">
                <path d="M1130,800C1135.5,800 1140,805 1140,810C1140,816 1135.5,820 1130,820C1124.5,820 1120,816 1120,810C1120,805 1124.5,800 1130,800Z" style="fill:rgb(178,178,178);fill-rule:nonzero;stroke:black;stroke-width:2px;"/>
            </g>
            <g transform="matrix(0,0.684817,-1.09974,0,1072.24,-461.192)">
                <path d="M1090,840C1095.5,840 1100,845 1100,850C1100,856 1095.5,860 1090,860C1084.5,860 1080,856 1080,850C1080,845 1084.5,840 1090,840Z" style="fill:rgb(178,178,178);fill-rule:nonzero;stroke:black;stroke-width:2px;"/>
            </g>
            <g transform="matrix(0,0.684817,-1.09974,0,918.277,-529.674)">
                <path d="M1070,720C1075.5,720 1080,725 1080,730C1080,736 1075.5,740 1070,740C1064.5,740 1060,736 1060,730C1060,725 1064.5,720 1070,720Z" style="fill:rgb(178,178,178);fill-rule:nonzero;stroke:black;stroke-width:2px;"/>
            </g>
            <g transform="matrix(0,0.684817,-1.09974,0,984.262,-461.192)">
                <path d="M1050,800C1055.5,800 1060,805 1060,810C1060,816 1055.5,820 1050,820C1044.5,820 1040,816 1040,810C1040,805 1044.5,800 1050,800Z" style="fill:rgb(178,178,178);fill-rule:nonzero;stroke:black;stroke-width:2px;"/>
            </g>
            <g transform="matrix(0,0.684817,-1.09974,0,1039.25,-495.433)">
                <path d="M1100,800C1105.5,800 1110,805 1110,810C1110,816 1105.5,820 1100,820C1094.5,820 1090,816 1090,810C1090,805 1094.5,800 1100,800Z" style="fill:rgb(178,178,178);fill-rule:nonzero;stroke:black;stroke-width:2px;"/>
            </g>
            <g transform="matrix(0,0.684817,-1.09974,0,1083.24,-495.433)">
                <path d="M1120,820C1125.5,820 1130,825 1130,830C1130,836 1125.5,840 1120,840C1114.5,840 1110,836 1110,830C1110,825 1114.5,820 1120,820Z" style="fill:rgb(178,178,178);fill-rule:nonzero;stroke:black;stroke-width:2px;"/>
            </g>
            <g transform="matrix(0,0.684817,-1.09974,0,1050.25,-474.888)">
                <path d="M1090,820C1095.5,820 1100,825 1100,830C1100,836 1095.5,840 1090,840C1084.5,840 1080,836 1080,830C1080,825 1084.5,820 1090,820Z" style="fill:rgb(178,178,178);fill-rule:nonzero;stroke:black;stroke-width:2px;"/>
            </g>
            <g transform="matrix(0,0.684817,-1.09974,0,1138.23,-502.281)">
                <path d="M1150,840C1155.5,840 1160,845 1160,850C1160,856 1155.5,860 1150,860C1144.5,860 1140,856 1140,850C1140,845 1144.5,840 1150,840Z" style="fill:rgb(178,178,178);fill-rule:nonzero;stroke:black;stroke-width:2px;"/>
            </g>
            <g transform="matrix(0,0.684817,-1.09974,0,1116.23,-461.192)">
                <path d="M1110,860C1115.5,860 1120,865 1120,870C1120,876 1115.5,880 1110,880C1104.5,880 1100,876 1100,870C1100,865 1104.5,860 1110,860Z" style="fill:rgb(178,178,178);fill-rule:nonzero;stroke:black;stroke-width:2px;"/>
            </g>
            <g transform="matrix(0,0.684817,-1.09974,0,1017.25,-563.914)">
                <path d="M1140,740C1145.5,740 1150,745 1150,750C1150,756 1145.5,760 1140,760C1134.5,760 1130,756 1130,750C1130,745 1134.5,740 1140,740Z" style="fill:rgb(178,178,178);fill-rule:nonzero;stroke:black;stroke-width:2px;"/>
            </g>
            <g transform="matrix(0,0.684817,-1.09974,0,1109.63,-594.046)">
                <path d="M1204,760C1209.5,760 1214,765 1214,770C1214,776 1209.5,780 1204,780C1198.5,780 1194,776 1194,770C1194,765 1198.5,760 1204,760Z" style="fill:rgb(178,178,178);fill-rule:nonzero;stroke:black;stroke-width:2px;"/>
            </g>
            <g transform="matrix(0,0.684817,-1.09974,0,1226.2,-721.422)">
                <path d="M1350,720C1355.5,720 1360,725 1360,730C1360,736 1355.5,740 1350,740C1344.5,740 1340,736 1340,730C1340,725 1344.5,720 1350,720Z" style="fill:rgb(178,178,178);fill-rule:nonzero;stroke:black;stroke-width:2px;"/>
            </g>
            <g transform="matrix(0,0.684817,-1.09974,0,1127.23,-741.967)">
                <path d="M1320,660C1325.5,660 1330,665 1330,670C1330,676 1325.5,680 1320,680C1314.5,680 1310,676 1310,670C1310,665 1314.5,660 1320,660Z" style="fill:rgb(178,178,178);fill-rule:nonzero;stroke:black;stroke-width:2px;"/>
            </g>
            <g transform="matrix(0,0.684817,-1.09974,0,1215.21,-769.359)">
                <path d="M1380,680C1385.5,680 1390,685 1390,690C1390,696 1385.5,700 1380,700C1374.5,700 1370,696 1370,690C1370,685 1374.5,680 1380,680Z" style="fill:rgb(178,178,178);fill-rule:nonzero;stroke:black;stroke-width:2px;"/>
            </g>
            <g transform="matrix(0,0.684817,-1.09974,0,1149.22,-783.056)">
                <path d="M1360,640C1365.5,640 1370,645 1370,650C1370,656 1365.5,660 1360,660C1354.5,660 1350,656 1350,650C1350,645 1354.5,640 1360,640Z" style="fill:rgb(178,178,178);fill-rule:nonzero;stroke:black;stroke-width:2px;"/>
            </g>
            <g transform="matrix(0,0.684817,-1.09974,0,1226.2,-748.815)">
                <path d="M1370,700C1375.5,700 1380,705 1380,710C1380,716 1375.5,720 1370,720C1364.5,720 1360,716 1360,710C1360,705 1364.5,700 1370,700Z" style="fill:rgb(178,178,178);fill-rule:nonzero;stroke:black;stroke-width:2px;"/>
            </g>
            <g transform="matrix(0,0.684817,-1.09974,0,1237.2,-577.611)">
                <path d="M1250,830C1255.5,830 1260,835 1260,840C1260,846 1255.5,850 1250,850C1244.5,850 1240,846 1240,840C1240,835 1244.5,830 1250,830Z" style="fill:rgb(178,178,178);fill-rule:nonzero;stroke:black;stroke-width:2px;"/>
            </g>
            <g transform="matrix(0,0.684817,-1.09974,0,991.52,-621.028)">
                <path d="M1170,686.6C1175.5,686.6 1180,691.6 1180,696.6C1180,702.6 1175.5,706.6 1170,706.6C1164.5,706.6 1160,702.6 1160,696.6C1160,691.6 1164.5,686.6 1170,686.6Z" style="fill:rgb(178,178,178);fill-rule:nonzero;stroke:black;stroke-width:2px;"/>
            </g>
            <g transform="matrix(0,0.684817,-1.09974,0,896.283,-570.763)">
                <path d="M1090,680C1095.5,680 1100,685 1100,690C1100,696 1095.5,700 1090,700C1084.5,700 1080,696 1080,690C1080,685 1084.5,680 1090,680Z" style="fill:rgb(178,178,178);fill-rule:nonzero;stroke:black;stroke-width:2px;"/>
            </g>
            <g transform="matrix(1.09974,0,0,-0.684817,-424.645,694.588)">
                <rect x="449.3" y="912.6" width="361.4" height="46.8" style="fill:none;stroke:black;stroke-opacity:0;stroke-width:2px;"/>
            </g>
            <g transform="matrix(0.122181,0,0,-0.0760832,81.1486,45.269)">
                <path d="M185,-159C185,-244 82,-245 19,-222L19,-159L35,-159C37,-196 56,-217 96,-217C142,-217 165,-166 127,-146C85,-123 21,-123 21,-56C21,13 108,14 169,0L169,-56L153,-56L146,-24C120,1 36,-11 64,-59C103,-93 185,-85 185,-159Z" style="fill-rule:nonzero;"/>
            </g>
            <g transform="matrix(0.122181,0,0,-0.0760832,105.585,51.66)">
                <path d="M73,-96C70,-127 100,-134 124,-121L124,2L108,7L108,18L174,18L174,-131L191,-135L191,-147L126,-147L124,-133C94,-156 22,-165 22,-103L22,2L5,7L5,18L73,18L73,-96Z" style="fill-rule:nonzero;"/>
            </g>
            <g transform="matrix(0.122181,0,0,-0.0760832,130.021,55.7685)">
                <path d="M186,-7C188,-76 140,-110 72,-92L73,-154L98,-158L98,-170L5,-170L5,-158L23,-154L23,56L5,61L5,72L72,72L72,64C84,72 98,77 118,77C167,75 185,47 186,-7ZM103,-78C131,-78 134,-45 134,-9C134,25 132,57 104,57C92,57 81,54 73,50L73,-74C82,-76 93,-78 103,-78Z" style="fill-rule:nonzero;"/>
            </g>
            <g transform="matrix(0.122181,0,0,-0.0760832,154.457,50.4427)">
                <path d="M12,-80C12,-25 34,5 87,6C139,7 153,-27 150,-82L64,-82C63,-119 70,-146 108,-145C122,-145 136,-141 147,-139C150,-167 119,-164 92,-166C35,-170 12,-135 12,-80ZM102,-63C104,-37 102,0 75,-15C65,-24 64,-43 64,-63L102,-63Z" style="fill-rule:nonzero;"/>
            </g>
            <g transform="matrix(0.122181,0,0,-0.0760832,173.884,49.7579)">
                <path d="M132,-40C111,-40 95,-49 82,-56L82,-156L108,-160L108,-172L10,-172L10,-160L31,-156L31,-23L10,-18L10,-7L79,-7L81,-41C98,-23 116,0 152,-1L152,-62C135,-65 138,-48 132,-40Z" style="fill-rule:nonzero;"/>
            </g>
            <g transform="matrix(0.122181,0,0,-0.0760832,193.311,50.5948)">
                <path d="M168,-11L102,-165L81,-165L12,-12C5,-10 -3,-8 0,4L85,4L85,-7L65,-12L107,-106L145,-12L126,-7L126,4L180,4L180,-7L168,-11Z" style="fill-rule:nonzero;"/>
            </g>
            <g transform="matrix(0.122181,0,0,-0.0760832,215.303,43.8234)">
                <path d="M77,-234L95,-238L95,-250L8,-250L8,-238L26,-234L26,-101L9,-96L9,-85L77,-85L77,-234ZM51,-54C35,-54 24,-44 24,-27C24,-10 34,0 51,0C68,0 78,-11 78,-27C78,-44 68,-54 51,-54Z" style="fill-rule:nonzero;"/>
            </g>
            <g transform="matrix(0.122181,0,0,-0.0760832,227.521,50.2905)">
                <path d="M102,-23C88,-6 34,-8 48,-41C72,-67 131,-58 131,-113C131,-175 59,-175 11,-160L11,-115L23,-115C27,-138 39,-152 66,-152C101,-152 105,-115 75,-106C44,-97 10,-87 11,-45C11,7 70,10 119,0L119,-43L108,-43L102,-23Z" style="fill-rule:nonzero;"/>
            </g>
            <g transform="matrix(0.122181,0,0,-0.0760832,244.627,50.4427)">
                <path d="M12,-80C12,-25 34,5 87,6C139,7 153,-27 150,-82L64,-82C63,-119 70,-146 108,-145C122,-145 136,-141 147,-139C150,-167 119,-164 92,-166C35,-170 12,-135 12,-80ZM102,-63C104,-37 102,0 75,-15C65,-24 64,-43 64,-63L102,-63Z" style="fill-rule:nonzero;"/>
            </g>
            <g transform="matrix(0.122181,0,0,-0.0760832,264.053,45.5734)">
                <path d="M15,-145C11,-76 62,-44 128,-62L127,7L110,11L110,23L178,23L178,-211L196,-215L196,-227L133,-227L129,-218C77,-250 5,-218 15,-145ZM127,-79C84,-63 63,-96 66,-144C68,-177 69,-211 98,-211C110,-211 120,-208 127,-203L127,-79Z" style="fill-rule:nonzero;"/>
            </g>
            <g transform="matrix(0.122181,0,0,-0.0760832,299.422,43.8234)">
                <path d="M76,-234L94,-238L94,-250L7,-250L7,-238L25,-234L25,-16L8,-12L8,0L76,0L76,-234Z" style="fill-rule:nonzero;"/>
            </g>
            <g transform="matrix(0.122181,0,0,-0.0760832,311.64,50.4427)">
                <path d="M12,-80C12,-25 34,5 87,6C139,7 153,-27 150,-82L64,-82C63,-119 70,-146 108,-145C122,-145 136,-141 147,-139C150,-167 119,-164 92,-166C35,-170 12,-135 12,-80ZM102,-63C104,-37 102,0 75,-15C65,-24 64,-43 64,-63L102,-63Z" style="fill-rule:nonzero;"/>
            </g>
            <g transform="matrix(0.122181,0,0,-0.0760832,331.067,49.9101)">
                <path d="M31,-7C82,-2 158,13 158,-47L158,-154L175,-158L175,-170L114,-170L110,-157C82,-183 12,-182 12,-124C12,-73 58,-72 107,-71C116,-26 85,-2 50,-27L43,-47L31,-47L31,-7ZM62,-123C62,-153 88,-157 107,-146L107,-87C79,-87 62,-93 62,-123Z" style="fill-rule:nonzero;"/>
            </g>
            <g transform="matrix(0.122181,0,0,-0.0760832,353.06,49.7579)">
                <path d="M132,-40C111,-40 95,-49 82,-56L82,-156L108,-160L108,-172L10,-172L10,-160L31,-156L31,-23L10,-18L10,-7L79,-7L81,-41C98,-23 116,0 152,-1L152,-62C135,-65 138,-48 132,-40Z" style="fill-rule:nonzero;"/>
            </g>
            <g transform="matrix(0.122181,0,0,-0.0760832,372.487,48.921)">
                <path d="M127,-69C130,-38 101,-31 77,-44L77,-167L92,-171L92,-183L10,-183L10,-171L26,-167L26,-34L10,-29L10,-18L74,-18L76,-32C107,-9 178,0 178,-62L178,-167L195,-171L195,-183L113,-183L113,-171L127,-167L127,-69Z" style="fill-rule:nonzero;"/>
            </g>
            <g transform="matrix(0.122181,0,0,-0.0760832,396.923,43.8234)">
                <path d="M77,-234L95,-238L95,-250L8,-250L8,-238L26,-234L26,-101L9,-96L9,-85L77,-85L77,-234ZM51,-54C35,-54 24,-44 24,-27C24,-10 34,0 51,0C68,0 78,-11 78,-27C78,-44 68,-54 51,-54Z" style="fill-rule:nonzero;"/>
            </g>
            <g transform="matrix(0.122181,0,0,-0.0760832,409.141,48.921)">
                <path d="M127,-69C130,-38 101,-31 77,-44L77,-167L92,-171L92,-183L10,-183L10,-171L26,-167L26,-34L10,-29L10,-18L74,-18L76,-32C107,-9 178,0 178,-62L178,-167L195,-171L195,-183L113,-183L113,-171L127,-167L127,-69Z" style="fill-rule:nonzero;"/>
            </g>
            <g transform="matrix(0.122181,0,0,-0.0760832,433.577,54.7794)">
                <path d="M9,-147C11,-129 27,-121 41,-114C29,-107 16,-97 16,-78L45,-45C24,-36 14,-20 14,6C12,62 75,71 125,59L164,79C177,67 155,55 150,43C185,-11 133,-71 60,-49C43,-83 87,-77 116,-77C152,-76 177,-89 176,-123C174,-169 137,-185 85,-185C47,-185 14,-179 9,-147ZM44,-144C50,-179 141,-173 138,-135C136,-107 88,-121 60,-118C52,-125 45,-132 44,-144ZM64,6C64,-16 68,-34 87,-34C107,-34 111,-17 111,6C111,30 107,46 87,46C68,46 64,29 64,6Z" style="fill-rule:nonzero;"/>
            </g>
            <g transform="matrix(1.09974,0,0,-0.684817,-1061.25,985.689)">
                <rect x="1000" y="913.4" width="407" height="46" style="fill:none;stroke:black;stroke-opacity:0;stroke-width:2px;"/>
            </g>
            <g transform="matrix(0.122181,0,0,-0.0760832,50.6446,336.218)">
                <path d="M91,-15C98,-92 62,-212 147,-212C231,-212 194,-91 202,-15L171,-10L171,3L251,3L251,-10L224,-15L224,-152C223,-208 192,-236 133,-236C74,-235 37,-210 36,-151L36,-15L9,-10L9,3L121,3L121,-10L91,-15Z" style="fill-rule:nonzero;"/>
            </g>
            <g transform="matrix(0.122181,0,0,-0.0760832,82.2895,340.022)">
                <path d="M127,-69C130,-38 101,-31 77,-44L77,-167L92,-171L92,-183L10,-183L10,-171L26,-167L26,-34L10,-29L10,-18L74,-18L76,-32C107,-9 178,0 178,-62L178,-167L195,-171L195,-183L113,-183L113,-171L127,-167L127,-69Z" style="fill-rule:nonzero;"/>
            </g>
            <g transform="matrix(0.122181,0,0,-0.0760832,106.726,341.392)">
                <path d="M102,-23C88,-6 34,-8 48,-41C72,-67 131,-58 131,-113C131,-175 59,-175 11,-160L11,-115L23,-115C27,-138 39,-152 66,-152C101,-152 105,-115 75,-106C44,-97 10,-87 11,-45C11,7 70,10 119,0L119,-43L108,-43L102,-23Z" style="fill-rule:nonzero;"/>
            </g>
            <g transform="matrix(0.122181,0,0,-0.0760832,123.831,342.761)">
                <path d="M73,-96C70,-127 100,-134 124,-121L124,2L108,7L108,18L174,18L174,-131L191,-135L191,-147L126,-147L124,-133C94,-156 22,-165 22,-103L22,2L5,7L5,18L73,18L73,-96Z" style="fill-rule:nonzero;"/>
            </g>
            <g transform="matrix(0.122181,0,0,-0.0760832,148.267,346.87)">
                <path d="M186,-7C188,-76 140,-110 72,-92L73,-154L98,-158L98,-170L5,-170L5,-158L23,-154L23,56L5,61L5,72L72,72L72,64C84,72 98,77 118,77C167,75 185,47 186,-7ZM103,-78C131,-78 134,-45 134,-9C134,25 132,57 104,57C92,57 81,54 73,50L73,-74C82,-76 93,-78 103,-78Z" style="fill-rule:nonzero;"/>
            </g>
            <g transform="matrix(0.122181,0,0,-0.0760832,172.703,341.544)">
                <path d="M12,-80C12,-25 34,5 87,6C139,7 153,-27 150,-82L64,-82C63,-119 70,-146 108,-145C122,-145 136,-141 147,-139C150,-167 119,-164 92,-166C35,-170 12,-135 12,-80ZM102,-63C104,-37 102,0 75,-15C65,-24 64,-43 64,-63L102,-63Z" style="fill-rule:nonzero;"/>
            </g>
            <g transform="matrix(0.122181,0,0,-0.0760832,192.13,340.859)">
                <path d="M132,-40C111,-40 95,-49 82,-56L82,-156L108,-160L108,-172L10,-172L10,-160L31,-156L31,-23L10,-18L10,-7L79,-7L81,-41C98,-23 116,0 152,-1L152,-62C135,-65 138,-48 132,-40Z" style="fill-rule:nonzero;"/>
            </g>
            <g transform="matrix(0.122181,0,0,-0.0760832,211.557,341.696)">
                <path d="M168,-11L102,-165L81,-165L12,-12C5,-10 -3,-8 0,4L85,4L85,-7L65,-12L107,-106L145,-12L126,-7L126,4L180,4L180,-7L168,-11Z" style="fill-rule:nonzero;"/>
            </g>
            <g transform="matrix(0.122181,0,0,-0.0760832,233.549,334.925)">
                <path d="M77,-234L95,-238L95,-250L8,-250L8,-238L26,-234L26,-101L9,-96L9,-85L77,-85L77,-234ZM51,-54C35,-54 24,-44 24,-27C24,-10 34,0 51,0C68,0 78,-11 78,-27C78,-44 68,-54 51,-54Z" style="fill-rule:nonzero;"/>
            </g>
            <g transform="matrix(0.122181,0,0,-0.0760832,245.768,341.392)">
                <path d="M102,-23C88,-6 34,-8 48,-41C72,-67 131,-58 131,-113C131,-175 59,-175 11,-160L11,-115L23,-115C27,-138 39,-152 66,-152C101,-152 105,-115 75,-106C44,-97 10,-87 11,-45C11,7 70,10 119,0L119,-43L108,-43L102,-23Z" style="fill-rule:nonzero;"/>
            </g>
            <g transform="matrix(0.122181,0,0,-0.0760832,262.873,341.544)">
                <path d="M12,-80C12,-25 34,5 87,6C139,7 153,-27 150,-82L64,-82C63,-119 70,-146 108,-145C122,-145 136,-141 147,-139C150,-167 119,-164 92,-166C35,-170 12,-135 12,-80ZM102,-63C104,-37 102,0 75,-15C65,-24 64,-43 64,-63L102,-63Z" style="fill-rule:nonzero;"/>
            </g>
            <g transform="matrix(0.122181,0,0,-0.0760832,282.3,336.675)">
                <path d="M15,-145C11,-76 62,-44 128,-62L127,7L110,11L110,23L178,23L178,-211L196,-215L196,-227L133,-227L129,-218C77,-250 5,-218 15,-145ZM127,-79C84,-63 63,-96 66,-144C68,-177 69,-211 98,-211C110,-211 120,-208 127,-203L127,-79Z" style="fill-rule:nonzero;"/>
            </g>
            <g transform="matrix(0.122181,0,0,-0.0760832,317.711,334.925)">
                <path d="M76,-234L94,-238L94,-250L7,-250L7,-238L25,-234L25,-16L8,-12L8,0L76,0L76,-234Z" style="fill-rule:nonzero;"/>
            </g>
            <g transform="matrix(0.122181,0,0,-0.0760832,329.929,341.544)">
                <path d="M12,-80C12,-25 34,5 87,6C139,7 153,-27 150,-82L64,-82C63,-119 70,-146 108,-145C122,-145 136,-141 147,-139C150,-167 119,-164 92,-166C35,-170 12,-135 12,-80ZM102,-63C104,-37 102,0 75,-15C65,-24 64,-43 64,-63L102,-63Z" style="fill-rule:nonzero;"/>
            </g>
            <g transform="matrix(0.122181,0,0,-0.0760832,349.355,341.012)">
                <path d="M31,-7C82,-2 158,13 158,-47L158,-154L175,-158L175,-170L114,-170L110,-157C82,-183 12,-182 12,-124C12,-73 58,-72 107,-71C116,-26 85,-2 50,-27L43,-47L31,-47L31,-7ZM62,-123C62,-153 88,-157 107,-146L107,-87C79,-87 62,-93 62,-123Z" style="fill-rule:nonzero;"/>
            </g>
            <g transform="matrix(0.122181,0,0,-0.0760832,371.348,340.859)">
                <path d="M132,-40C111,-40 95,-49 82,-56L82,-156L108,-160L108,-172L10,-172L10,-160L31,-156L31,-23L10,-18L10,-7L79,-7L81,-41C98,-23 116,0 152,-1L152,-62C135,-65 138,-48 132,-40Z" style="fill-rule:nonzero;"/>
            </g>
            <g transform="matrix(0.122181,0,0,-0.0760832,390.775,340.022)">
                <path d="M127,-69C130,-38 101,-31 77,-44L77,-167L92,-171L92,-183L10,-183L10,-171L26,-167L26,-34L10,-29L10,-18L74,-18L76,-32C107,-9 178,0 178,-62L178,-167L195,-171L195,-183L113,-183L113,-171L127,-167L127,-69Z" style="fill-rule:nonzero;"/>
            </g>
            <g transform="matrix(0.122181,0,0,-0.0760832,415.211,334.925)">
                <path d="M77,-234L95,-238L95,-250L8,-250L8,-238L26,-234L26,-101L9,-96L9,-85L77,-85L77,-234ZM51,-54C35,-54 24,-44 24,-27C24,-10 34,0 51,0C68,0 78,-11 78,-27C78,-44 68,-54 51,-54Z" style="fill-rule:nonzero;"/>
            </g>
            <g transform="matrix(0.122181,0,0,-0.0760832,427.429,340.022)">
                <path d="M127,-69C130,-38 101,-31 77,-44L77,-167L92,-171L92,-183L10,-183L10,-171L26,-167L26,-34L10,-29L10,-18L74,-18L76,-32C107,-9 178,0 178,-62L178,-167L195,-171L195,-183L113,-183L113,-171L127,-167L127,-69Z" style="fill-rule:nonzero;"/>
            </g>
            <g transform="matrix(0.122181,0,0,-0.0760832,451.865,345.881)">
                <path d="M9,-147C11,-129 27,-121 41,-114C29,-107 16,-97 16,-78L45,-45C24,-36 14,-20 14,6C12,62 75,71 125,59L164,79C177,67 155,55 150,43C185,-11 133,-71 60,-49C43,-83 87,-77 116,-77C152,-76 177,-89 176,-123C174,-169 137,-185 85,-185C47,-185 14,-179 9,-147ZM44,-144C50,-179 141,-173 138,-135C136,-107 88,-121 60,-118C52,-125 45,-132 44,-144ZM64,6C64,-16 68,-34 87,-34C107,-34 111,-17 111,6C111,30 107,46 87,46C68,46 64,29 64,6Z" style="fill-rule:nonzero;"/>
            </g>
            <g transform="matrix(2.44386,0,0,1.52182,-50.7342,-231.969)">
                <text x="53.955px" y="193.725px" style="font-family:'Helvetica-Oblique', 'Helvetica';font-style:italic;font-size:18px;fill:none;">S<tspan x="63.954px " y="193.725px ">u</tspan>pe<tspan x="91.899px 99.846px 108.846px 113.845px 120.812px 128.79px " y="193.725px 193.725px 193.725px 193.725px 193.725px 193.725px ">rvised</tspan> l<tspan x="148.778px 156.725px 165.725px 173.672px 183.671px 188.67px " y="193.725px 193.725px 193.725px 193.725px 193.725px 193.725px ">earnin</tspan>g</text>
            </g>
            <g transform="matrix(2.44386,0,0,1.52182,-687.34,58.5841)">
                <text x="302.31px" y="194.085px" style="font-family:'Helvetica-Oblique', 'Helvetica';font-style:italic;font-size:18px;fill:none;">Uns<tspan x="332.253px " y="194.085px ">u</tspan>pe<tspan x="360.198px 368.145px 377.145px 382.145px 389.111px 397.089px " y="194.085px 194.085px 194.085px 194.085px 194.085px 194.085px ">rvised</tspan> l<tspan x="417.077px 425.024px 434.024px 441.971px 451.97px 456.969px " y="194.085px 194.085px 194.085px 194.085px 194.085px 194.085px ">earnin</tspan>g</text>
            </g>
        </g>
    </g>
</svg>
